<svg baseProfile="tiny" height="1100" version="1.2" width="1101" xmlns="http://www.w3.org/2000/svg" xmlns:ev="http://www.w3.org/2001/xml-events" xmlns:xlink="http://www.w3.org/1999/xlink"><defs /><rect fill="none" height="1100" width="1101" x="0" y="0" /><g class="mask label-1" fill="none" id="label-1" stroke="#FFDE59" stroke-width="2"><path d="M 610.0,229.0 L 609.0,230.0 L 602.0,230.0 L 601.0,231.0 L 600.0,231.0 L 599.0,230.0 L 598.0,230.0 L 597.0,231.0 L 595.0,231.0 L 594.0,230.0 L 593.0,231.0 L 590.0,231.0 L 589.0,232.0 L 588.0,231.0 L 586.0,231.0 L 585.0,232.0 L 582.0,232.0 L 581.0,231.0 L 580.0,232.0 L 577.0,232.0 L 576.0,233.0 L 575.0,233.0 L 574.0,232.0 L 573.0,232.0 L 572.0,233.0 L 569.0,233.0 L 568.0,234.0 L 567.0,234.0 L 566.0,233.0 L 565.0,233.0 L 564.0,234.0 L 561.0,234.0 L 560.0,235.0 L 558.0,235.0 L 557.0,234.0 L 556.0,235.0 L 553.0,235.0 L 552.0,236.0 L 549.0,236.0 L 548.0,237.0 L 547.0,236.0 L 544.0,236.0 L 543.0,237.0 L 540.0,237.0 L 539.0,238.0 L 532.0,238.0 L 531.0,239.0 L 528.0,239.0 L 527.0,240.0 L 524.0,240.0 L 523.0,241.0 L 520.0,241.0 L 519.0,242.0 L 517.0,242.0 L 516.0,241.0 L 515.0,242.0 L 512.0,242.0 L 511.0,243.0 L 508.0,243.0 L 507.0,244.0 L 503.0,244.0 L 502.0,245.0 L 499.0,245.0 L 498.0,246.0 L 495.0,246.0 L 494.0,247.0 L 491.0,247.0 L 490.0,248.0 L 487.0,248.0 L 486.0,249.0 L 483.0,249.0 L 482.0,250.0 L 479.0,250.0 L 478.0,251.0 L 475.0,251.0 L 474.0,252.0 L 471.0,252.0 L 470.0,253.0 L 469.0,253.0 L 468.0,254.0 L 467.0,254.0 L 466.0,255.0 L 463.0,255.0 L 462.0,256.0 L 459.0,256.0 L 458.0,257.0 L 455.0,257.0 L 454.0,258.0 L 451.0,258.0 L 451.0,259.0 L 450.0,260.0 L 447.0,260.0 L 446.0,261.0 L 443.0,261.0 L 442.0,262.0 L 439.0,262.0 L 439.0,263.0 L 438.0,264.0 L 435.0,264.0 L 434.0,265.0 L 431.0,265.0 L 429.0,267.0 L 427.0,267.0 L 426.0,268.0 L 423.0,268.0 L 422.0,269.0 L 421.0,269.0 L 420.0,270.0 L 419.0,270.0 L 418.0,271.0 L 415.0,271.0 L 413.0,273.0 L 411.0,273.0 L 410.0,274.0 L 407.0,274.0 L 407.0,275.0 L 406.0,276.0 L 403.0,276.0 L 402.0,277.0 L 400.0,277.0 L 398.0,279.0 L 395.0,279.0 L 395.0,280.0 L 394.0,281.0 L 391.0,281.0 L 389.0,283.0 L 387.0,283.0 L 386.0,284.0 L 385.0,284.0 L 384.0,285.0 L 383.0,285.0 L 382.0,286.0 L 380.0,286.0 L 378.0,288.0 L 375.0,288.0 L 375.0,289.0 L 374.0,290.0 L 372.0,290.0 L 370.0,292.0 L 367.0,292.0 L 367.0,293.0 L 366.0,294.0 L 363.0,294.0 L 363.0,295.0 L 362.0,296.0 L 360.0,296.0 L 358.0,298.0 L 356.0,298.0 L 354.0,300.0 L 353.0,300.0 L 352.0,301.0 L 351.0,301.0 L 350.0,302.0 L 349.0,302.0 L 348.0,303.0 L 347.0,303.0 L 345.0,305.0 L 343.0,305.0 L 343.0,306.0 L 342.0,307.0 L 340.0,307.0 L 340.0,308.0 L 339.0,309.0 L 337.0,309.0 L 335.0,311.0 L 334.0,311.0 L 333.0,312.0 L 332.0,312.0 L 330.0,314.0 L 328.0,314.0 L 328.0,315.0 L 327.0,316.0 L 326.0,316.0 L 325.0,317.0 L 324.0,317.0 L 322.0,319.0 L 320.0,319.0 L 320.0,320.0 L 318.0,322.0 L 316.0,322.0 L 316.0,323.0 L 315.0,324.0 L 313.0,324.0 L 312.0,325.0 L 312.0,326.0 L 311.0,327.0 L 309.0,327.0 L 309.0,328.0 L 308.0,329.0 L 307.0,329.0 L 306.0,330.0 L 305.0,330.0 L 305.0,331.0 L 304.0,332.0 L 303.0,332.0 L 302.0,333.0 L 301.0,333.0 L 301.0,334.0 L 300.0,335.0 L 298.0,335.0 L 297.0,336.0 L 297.0,337.0 L 296.0,338.0 L 295.0,338.0 L 294.0,339.0 L 293.0,339.0 L 293.0,340.0 L 291.0,342.0 L 290.0,342.0 L 287.0,345.0 L 286.0,345.0 L 286.0,346.0 L 284.0,348.0 L 283.0,348.0 L 279.0,352.0 L 278.0,352.0 L 278.0,353.0 L 277.0,354.0 L 276.0,354.0 L 275.0,355.0 L 274.0,355.0 L 274.0,357.0 L 273.0,358.0 L 272.0,358.0 L 271.0,359.0 L 270.0,359.0 L 270.0,361.0 L 269.0,362.0 L 268.0,362.0 L 266.0,364.0 L 266.0,365.0 L 265.0,366.0 L 264.0,366.0 L 263.0,367.0 L 263.0,368.0 L 262.0,369.0 L 261.0,369.0 L 261.0,370.0 L 260.0,371.0 L 259.0,371.0 L 259.0,372.0 L 256.0,375.0 L 256.0,376.0 L 252.0,380.0 L 252.0,381.0 L 248.0,385.0 L 248.0,386.0 L 246.0,388.0 L 246.0,389.0 L 245.0,390.0 L 245.0,391.0 L 244.0,392.0 L 243.0,392.0 L 243.0,393.0 L 241.0,395.0 L 241.0,396.0 L 240.0,397.0 L 240.0,398.0 L 238.0,400.0 L 238.0,402.0 L 236.0,404.0 L 236.0,405.0 L 235.0,406.0 L 235.0,407.0 L 234.0,408.0 L 234.0,409.0 L 233.0,410.0 L 233.0,411.0 L 232.0,412.0 L 232.0,413.0 L 231.0,414.0 L 231.0,416.0 L 230.0,417.0 L 230.0,418.0 L 229.0,419.0 L 229.0,421.0 L 228.0,422.0 L 228.0,425.0 L 226.0,427.0 L 226.0,430.0 L 225.0,431.0 L 225.0,435.0 L 224.0,436.0 L 225.0,437.0 L 224.0,438.0 L 224.0,439.0 L 223.0,440.0 L 223.0,441.0 L 224.0,442.0 L 223.0,443.0 L 223.0,452.0 L 222.0,453.0 L 223.0,454.0 L 223.0,456.0 L 222.0,457.0 L 223.0,458.0 L 223.0,462.0 L 224.0,463.0 L 223.0,464.0 L 223.0,466.0 L 224.0,467.0 L 224.0,470.0 L 225.0,471.0 L 225.0,474.0 L 226.0,475.0 L 226.0,478.0 L 228.0,480.0 L 228.0,482.0 L 229.0,483.0 L 229.0,486.0 L 230.0,486.0 L 231.0,487.0 L 231.0,490.0 L 232.0,490.0 L 233.0,491.0 L 233.0,492.0 L 234.0,493.0 L 234.0,494.0 L 236.0,496.0 L 236.0,498.0 L 237.0,497.0 L 238.0,498.0 L 238.0,500.0 L 241.0,503.0 L 241.0,504.0 L 242.0,505.0 L 243.0,505.0 L 244.0,506.0 L 244.0,507.0 L 245.0,508.0 L 245.0,509.0 L 246.0,509.0 L 249.0,512.0 L 249.0,513.0 L 250.0,513.0 L 253.0,516.0 L 254.0,516.0 L 255.0,517.0 L 255.0,518.0 L 256.0,518.0 L 260.0,522.0 L 261.0,522.0 L 263.0,524.0 L 265.0,524.0 L 266.0,525.0 L 266.0,526.0 L 267.0,527.0 L 268.0,527.0 L 269.0,528.0 L 270.0,528.0 L 273.0,531.0 L 275.0,531.0 L 278.0,534.0 L 279.0,533.0 L 280.0,534.0 L 281.0,534.0 L 282.0,535.0 L 283.0,535.0 L 286.0,538.0 L 287.0,538.0 L 288.0,537.0 L 291.0,540.0 L 293.0,540.0 L 294.0,541.0 L 295.0,541.0 L 296.0,542.0 L 298.0,542.0 L 300.0,544.0 L 303.0,544.0 L 305.0,546.0 L 306.0,545.0 L 308.0,547.0 L 311.0,547.0 L 312.0,548.0 L 315.0,548.0 L 317.0,550.0 L 321.0,550.0 L 322.0,551.0 L 324.0,551.0 L 325.0,552.0 L 328.0,552.0 L 329.0,553.0 L 333.0,553.0 L 334.0,554.0 L 337.0,554.0 L 338.0,555.0 L 341.0,555.0 L 342.0,556.0 L 346.0,556.0 L 347.0,557.0 L 350.0,557.0 L 351.0,558.0 L 358.0,558.0 L 359.0,559.0 L 360.0,559.0 L 361.0,560.0 L 362.0,559.0 L 363.0,559.0 L 364.0,560.0 L 368.0,560.0 L 369.0,561.0 L 370.0,560.0 L 371.0,561.0 L 373.0,561.0 L 374.0,560.0 L 375.0,561.0 L 377.0,561.0 L 378.0,562.0 L 379.0,561.0 L 380.0,562.0 L 385.0,562.0 L 386.0,563.0 L 387.0,562.0 L 388.0,562.0 L 389.0,563.0 L 390.0,563.0 L 391.0,562.0 L 392.0,562.0 L 393.0,563.0 L 395.0,563.0 L 394.0,563.0 L 390.0,559.0 L 389.0,559.0 L 388.0,558.0 L 388.0,557.0 L 387.0,556.0 L 386.0,556.0 L 384.0,554.0 L 384.0,552.0 L 383.0,552.0 L 382.0,551.0 L 382.0,550.0 L 381.0,549.0 L 381.0,548.0 L 380.0,548.0 L 379.0,547.0 L 379.0,544.0 L 377.0,542.0 L 377.0,540.0 L 376.0,539.0 L 376.0,536.0 L 375.0,535.0 L 375.0,532.0 L 374.0,531.0 L 374.0,530.0 L 375.0,529.0 L 375.0,528.0 L 374.0,527.0 L 374.0,525.0 L 375.0,524.0 L 374.0,523.0 L 374.0,522.0 L 375.0,521.0 L 375.0,520.0 L 376.0,519.0 L 375.0,518.0 L 375.0,517.0 L 376.0,516.0 L 376.0,513.0 L 377.0,512.0 L 377.0,509.0 L 379.0,507.0 L 379.0,505.0 L 380.0,504.0 L 380.0,503.0 L 381.0,502.0 L 381.0,501.0 L 383.0,499.0 L 383.0,498.0 L 386.0,495.0 L 386.0,494.0 L 387.0,493.0 L 387.0,492.0 L 388.0,491.0 L 389.0,491.0 L 390.0,490.0 L 390.0,489.0 L 391.0,488.0 L 392.0,488.0 L 392.0,487.0 L 393.0,486.0 L 394.0,486.0 L 394.0,485.0 L 395.0,484.0 L 396.0,484.0 L 397.0,483.0 L 397.0,482.0 L 398.0,481.0 L 399.0,481.0 L 400.0,480.0 L 401.0,480.0 L 401.0,479.0 L 402.0,478.0 L 404.0,478.0 L 407.0,475.0 L 409.0,475.0 L 409.0,474.0 L 410.0,473.0 L 413.0,473.0 L 413.0,472.0 L 414.0,471.0 L 416.0,471.0 L 418.0,469.0 L 421.0,469.0 L 422.0,468.0 L 423.0,468.0 L 424.0,467.0 L 425.0,467.0 L 426.0,466.0 L 429.0,466.0 L 430.0,465.0 L 433.0,465.0 L 434.0,464.0 L 437.0,464.0 L 438.0,463.0 L 441.0,463.0 L 442.0,462.0 L 443.0,463.0 L 445.0,463.0 L 446.0,462.0 L 453.0,462.0 L 454.0,463.0 L 455.0,462.0 L 461.0,462.0 L 462.0,463.0 L 463.0,462.0 L 464.0,462.0 L 465.0,463.0 L 466.0,463.0 L 467.0,462.0 L 468.0,463.0 L 469.0,463.0 L 470.0,464.0 L 473.0,464.0 L 474.0,465.0 L 475.0,465.0 L 476.0,464.0 L 477.0,465.0 L 478.0,465.0 L 479.0,466.0 L 481.0,466.0 L 483.0,468.0 L 484.0,468.0 L 485.0,467.0 L 488.0,470.0 L 490.0,470.0 L 491.0,471.0 L 493.0,471.0 L 496.0,474.0 L 497.0,474.0 L 501.0,478.0 L 502.0,478.0 L 504.0,480.0 L 504.0,481.0 L 505.0,482.0 L 506.0,482.0 L 508.0,484.0 L 508.0,486.0 L 509.0,486.0 L 510.0,487.0 L 510.0,488.0 L 513.0,491.0 L 513.0,493.0 L 514.0,494.0 L 514.0,495.0 L 515.0,496.0 L 515.0,497.0 L 516.0,498.0 L 516.0,501.0 L 517.0,502.0 L 517.0,505.0 L 518.0,506.0 L 518.0,508.0 L 517.0,509.0 L 517.0,510.0 L 518.0,511.0 L 518.0,513.0 L 517.0,514.0 L 518.0,515.0 L 518.0,516.0 L 517.0,517.0 L 517.0,521.0 L 516.0,522.0 L 517.0,523.0 L 516.0,524.0 L 516.0,525.0 L 515.0,526.0 L 515.0,529.0 L 513.0,531.0 L 513.0,533.0 L 512.0,534.0 L 512.0,536.0 L 510.0,538.0 L 510.0,539.0 L 509.0,540.0 L 509.0,541.0 L 508.0,542.0 L 507.0,542.0 L 506.0,543.0 L 506.0,544.0 L 505.0,545.0 L 505.0,546.0 L 504.0,547.0 L 503.0,547.0 L 503.0,548.0 L 497.0,554.0 L 496.0,554.0 L 495.0,555.0 L 495.0,556.0 L 494.0,557.0 L 493.0,557.0 L 492.0,558.0 L 491.0,558.0 L 491.0,559.0 L 490.0,560.0 L 489.0,560.0 L 491.0,560.0 L 492.0,559.0 L 493.0,560.0 L 495.0,560.0 L 496.0,559.0 L 499.0,559.0 L 500.0,558.0 L 501.0,558.0 L 502.0,559.0 L 503.0,559.0 L 504.0,558.0 L 507.0,558.0 L 508.0,557.0 L 515.0,557.0 L 516.0,556.0 L 519.0,556.0 L 520.0,555.0 L 523.0,555.0 L 524.0,556.0 L 525.0,555.0 L 528.0,555.0 L 529.0,554.0 L 532.0,554.0 L 533.0,553.0 L 536.0,553.0 L 537.0,552.0 L 540.0,552.0 L 541.0,551.0 L 542.0,552.0 L 544.0,552.0 L 545.0,551.0 L 548.0,551.0 L 549.0,550.0 L 552.0,550.0 L 553.0,549.0 L 556.0,549.0 L 557.0,548.0 L 560.0,548.0 L 561.0,547.0 L 564.0,547.0 L 565.0,546.0 L 568.0,546.0 L 569.0,545.0 L 572.0,545.0 L 573.0,544.0 L 576.0,544.0 L 577.0,543.0 L 581.0,543.0 L 582.0,542.0 L 585.0,542.0 L 586.0,541.0 L 589.0,541.0 L 591.0,539.0 L 593.0,539.0 L 594.0,538.0 L 597.0,538.0 L 598.0,537.0 L 601.0,537.0 L 602.0,536.0 L 605.0,536.0 L 606.0,535.0 L 608.0,535.0 L 610.0,533.0 L 613.0,533.0 L 614.0,532.0 L 617.0,532.0 L 618.0,531.0 L 619.0,531.0 L 620.0,530.0 L 621.0,530.0 L 622.0,529.0 L 625.0,529.0 L 626.0,528.0 L 629.0,528.0 L 629.0,527.0 L 630.0,526.0 L 633.0,526.0 L 634.0,525.0 L 637.0,525.0 L 637.0,524.0 L 638.0,523.0 L 641.0,523.0 L 639.0,523.0 L 638.0,522.0 L 637.0,523.0 L 636.0,522.0 L 634.0,522.0 L 633.0,521.0 L 632.0,522.0 L 631.0,521.0 L 630.0,521.0 L 629.0,520.0 L 628.0,521.0 L 626.0,519.0 L 623.0,519.0 L 622.0,518.0 L 621.0,518.0 L 620.0,517.0 L 619.0,517.0 L 617.0,515.0 L 614.0,515.0 L 611.0,512.0 L 609.0,512.0 L 608.0,511.0 L 608.0,510.0 L 607.0,509.0 L 606.0,509.0 L 605.0,508.0 L 604.0,508.0 L 603.0,507.0 L 603.0,506.0 L 602.0,505.0 L 602.0,504.0 L 601.0,505.0 L 599.0,503.0 L 599.0,502.0 L 597.0,500.0 L 597.0,499.0 L 594.0,496.0 L 594.0,495.0 L 593.0,494.0 L 593.0,493.0 L 592.0,492.0 L 592.0,490.0 L 590.0,488.0 L 590.0,485.0 L 589.0,484.0 L 589.0,481.0 L 588.0,480.0 L 588.0,478.0 L 589.0,477.0 L 588.0,476.0 L 588.0,469.0 L 589.0,468.0 L 588.0,467.0 L 589.0,466.0 L 589.0,462.0 L 591.0,460.0 L 590.0,459.0 L 591.0,458.0 L 591.0,456.0 L 592.0,455.0 L 592.0,454.0 L 594.0,452.0 L 594.0,449.0 L 597.0,446.0 L 597.0,445.0 L 600.0,442.0 L 600.0,441.0 L 601.0,440.0 L 601.0,439.0 L 602.0,438.0 L 603.0,438.0 L 605.0,436.0 L 605.0,435.0 L 607.0,433.0 L 608.0,433.0 L 609.0,432.0 L 609.0,431.0 L 610.0,430.0 L 611.0,430.0 L 612.0,429.0 L 613.0,429.0 L 613.0,428.0 L 615.0,426.0 L 617.0,426.0 L 617.0,425.0 L 618.0,424.0 L 620.0,424.0 L 620.0,423.0 L 621.0,422.0 L 623.0,422.0 L 625.0,420.0 L 626.0,420.0 L 627.0,419.0 L 628.0,419.0 L 629.0,418.0 L 630.0,418.0 L 631.0,417.0 L 632.0,417.0 L 633.0,416.0 L 636.0,416.0 L 636.0,415.0 L 637.0,414.0 L 640.0,414.0 L 641.0,413.0 L 644.0,413.0 L 645.0,412.0 L 648.0,412.0 L 649.0,411.0 L 652.0,411.0 L 653.0,410.0 L 656.0,410.0 L 657.0,411.0 L 658.0,410.0 L 661.0,410.0 L 662.0,409.0 L 663.0,409.0 L 664.0,410.0 L 665.0,410.0 L 666.0,409.0 L 667.0,409.0 L 668.0,410.0 L 669.0,410.0 L 670.0,409.0 L 671.0,409.0 L 672.0,410.0 L 673.0,410.0 L 674.0,409.0 L 675.0,410.0 L 677.0,410.0 L 678.0,411.0 L 679.0,410.0 L 681.0,410.0 L 682.0,411.0 L 683.0,410.0 L 684.0,411.0 L 685.0,411.0 L 686.0,412.0 L 687.0,411.0 L 688.0,412.0 L 689.0,412.0 L 690.0,413.0 L 691.0,412.0 L 692.0,413.0 L 693.0,413.0 L 694.0,414.0 L 696.0,414.0 L 697.0,415.0 L 698.0,415.0 L 699.0,416.0 L 701.0,416.0 L 703.0,418.0 L 705.0,418.0 L 707.0,420.0 L 709.0,420.0 L 711.0,422.0 L 711.0,423.0 L 712.0,423.0 L 713.0,424.0 L 714.0,424.0 L 716.0,426.0 L 716.0,427.0 L 717.0,427.0 L 720.0,430.0 L 720.0,431.0 L 721.0,431.0 L 722.0,432.0 L 722.0,434.0 L 723.0,434.0 L 725.0,436.0 L 725.0,438.0 L 726.0,438.0 L 727.0,439.0 L 727.0,442.0 L 728.0,442.0 L 729.0,443.0 L 729.0,446.0 L 730.0,447.0 L 730.0,450.0 L 731.0,451.0 L 731.0,454.0 L 732.0,455.0 L 731.0,456.0 L 731.0,459.0 L 732.0,460.0 L 731.0,461.0 L 731.0,466.0 L 730.0,467.0 L 731.0,468.0 L 731.0,469.0 L 730.0,470.0 L 730.0,472.0 L 729.0,473.0 L 729.0,474.0 L 728.0,475.0 L 728.0,478.0 L 726.0,480.0 L 726.0,481.0 L 728.0,481.0 L 728.0,480.0 L 729.0,479.0 L 730.0,479.0 L 731.0,478.0 L 732.0,478.0 L 734.0,476.0 L 736.0,476.0 L 736.0,475.0 L 737.0,474.0 L 738.0,474.0 L 741.0,471.0 L 743.0,471.0 L 743.0,470.0 L 744.0,469.0 L 745.0,469.0 L 746.0,468.0 L 747.0,468.0 L 747.0,467.0 L 748.0,466.0 L 750.0,466.0 L 751.0,465.0 L 751.0,464.0 L 752.0,463.0 L 754.0,463.0 L 757.0,460.0 L 758.0,460.0 L 761.0,457.0 L 762.0,457.0 L 763.0,456.0 L 763.0,455.0 L 764.0,454.0 L 765.0,454.0 L 768.0,451.0 L 769.0,451.0 L 770.0,450.0 L 770.0,449.0 L 771.0,448.0 L 772.0,448.0 L 773.0,447.0 L 774.0,447.0 L 774.0,446.0 L 776.0,444.0 L 777.0,444.0 L 780.0,441.0 L 781.0,441.0 L 782.0,440.0 L 782.0,439.0 L 783.0,438.0 L 784.0,438.0 L 785.0,437.0 L 785.0,436.0 L 787.0,434.0 L 788.0,434.0 L 789.0,433.0 L 789.0,432.0 L 790.0,431.0 L 791.0,431.0 L 793.0,429.0 L 793.0,428.0 L 794.0,427.0 L 795.0,427.0 L 795.0,426.0 L 799.0,422.0 L 800.0,422.0 L 800.0,420.0 L 802.0,418.0 L 803.0,418.0 L 804.0,417.0 L 804.0,415.0 L 805.0,414.0 L 806.0,414.0 L 807.0,413.0 L 807.0,411.0 L 809.0,409.0 L 810.0,409.0 L 811.0,408.0 L 811.0,406.0 L 815.0,402.0 L 815.0,401.0 L 817.0,399.0 L 817.0,398.0 L 818.0,397.0 L 818.0,396.0 L 820.0,394.0 L 820.0,393.0 L 822.0,391.0 L 822.0,388.0 L 825.0,385.0 L 825.0,383.0 L 827.0,381.0 L 826.0,380.0 L 828.0,378.0 L 828.0,375.0 L 830.0,373.0 L 830.0,371.0 L 831.0,370.0 L 831.0,367.0 L 832.0,366.0 L 832.0,365.0 L 833.0,364.0 L 833.0,361.0 L 834.0,360.0 L 834.0,356.0 L 835.0,355.0 L 834.0,354.0 L 835.0,353.0 L 835.0,348.0 L 836.0,347.0 L 836.0,346.0 L 835.0,345.0 L 836.0,344.0 L 836.0,334.0 L 835.0,333.0 L 835.0,326.0 L 834.0,325.0 L 834.0,321.0 L 833.0,320.0 L 833.0,317.0 L 832.0,316.0 L 832.0,314.0 L 830.0,312.0 L 830.0,309.0 L 829.0,308.0 L 829.0,307.0 L 828.0,306.0 L 828.0,305.0 L 826.0,303.0 L 826.0,302.0 L 824.0,300.0 L 824.0,298.0 L 823.0,298.0 L 822.0,297.0 L 822.0,296.0 L 821.0,295.0 L 821.0,294.0 L 819.0,292.0 L 819.0,291.0 L 818.0,290.0 L 817.0,290.0 L 816.0,289.0 L 816.0,288.0 L 815.0,287.0 L 815.0,286.0 L 814.0,286.0 L 812.0,284.0 L 812.0,283.0 L 811.0,282.0 L 810.0,282.0 L 809.0,281.0 L 809.0,280.0 L 808.0,280.0 L 804.0,276.0 L 804.0,275.0 L 802.0,275.0 L 800.0,273.0 L 800.0,272.0 L 799.0,272.0 L 798.0,271.0 L 797.0,271.0 L 795.0,269.0 L 794.0,269.0 L 791.0,266.0 L 790.0,266.0 L 788.0,264.0 L 787.0,264.0 L 786.0,263.0 L 785.0,263.0 L 783.0,261.0 L 781.0,261.0 L 780.0,260.0 L 779.0,260.0 L 777.0,258.0 L 776.0,258.0 L 775.0,257.0 L 774.0,257.0 L 773.0,256.0 L 771.0,256.0 L 769.0,254.0 L 767.0,254.0 L 766.0,253.0 L 765.0,253.0 L 764.0,252.0 L 763.0,252.0 L 762.0,251.0 L 759.0,251.0 L 757.0,249.0 L 756.0,249.0 L 755.0,248.0 L 752.0,248.0 L 751.0,247.0 L 749.0,247.0 L 747.0,245.0 L 743.0,245.0 L 742.0,244.0 L 740.0,244.0 L 739.0,243.0 L 737.0,243.0 L 736.0,242.0 L 734.0,242.0 L 733.0,241.0 L 732.0,242.0 L 731.0,241.0 L 730.0,241.0 L 729.0,240.0 L 728.0,241.0 L 727.0,240.0 L 726.0,240.0 L 725.0,239.0 L 724.0,240.0 L 723.0,239.0 L 721.0,239.0 L 720.0,238.0 L 719.0,239.0 L 718.0,238.0 L 717.0,238.0 L 716.0,237.0 L 715.0,238.0 L 714.0,237.0 L 713.0,237.0 L 712.0,236.0 L 711.0,237.0 L 710.0,236.0 L 708.0,236.0 L 707.0,235.0 L 706.0,236.0 L 705.0,235.0 L 701.0,235.0 L 700.0,234.0 L 693.0,234.0 L 692.0,233.0 L 688.0,233.0 L 687.0,232.0 L 686.0,232.0 L 685.0,233.0 L 684.0,232.0 L 680.0,232.0 L 679.0,231.0 L 678.0,231.0 L 677.0,232.0 L 676.0,232.0 L 675.0,231.0 L 670.0,231.0 L 669.0,230.0 L 668.0,231.0 L 667.0,231.0 L 666.0,230.0 L 665.0,230.0 L 664.0,231.0 L 663.0,230.0 L 661.0,230.0 L 660.0,231.0 L 659.0,230.0 L 653.0,230.0 L 652.0,229.0 L 651.0,230.0 L 649.0,230.0 L 648.0,229.0 L 647.0,230.0 L 646.0,230.0 L 645.0,229.0 L 644.0,229.0 L 643.0,230.0 L 642.0,230.0 L 641.0,229.0 L 640.0,229.0 L 639.0,230.0 L 638.0,230.0 L 637.0,229.0 L 636.0,229.0 L 635.0,230.0 L 634.0,230.0 L 633.0,229.0 L 631.0,229.0 L 630.0,230.0 L 629.0,229.0 L 627.0,229.0 L 626.0,230.0 L 625.0,230.0 L 624.0,229.0 L 623.0,229.0 L 622.0,230.0 L 620.0,230.0 L 619.0,229.0 L 618.0,230.0 L 616.0,230.0 L 615.0,229.0 L 614.0,230.0 L 611.0,230.0 Z" /></g><g class="mask label-2" fill="none" id="label-2" stroke="#66D3FA" stroke-width="2"><path d="M 442.0,463.0 L 441.0,464.0 L 438.0,464.0 L 437.0,465.0 L 434.0,465.0 L 433.0,466.0 L 430.0,466.0 L 429.0,467.0 L 426.0,467.0 L 425.0,468.0 L 424.0,468.0 L 423.0,469.0 L 422.0,469.0 L 421.0,470.0 L 418.0,470.0 L 416.0,472.0 L 414.0,472.0 L 414.0,473.0 L 413.0,474.0 L 410.0,474.0 L 410.0,475.0 L 409.0,476.0 L 407.0,476.0 L 404.0,479.0 L 402.0,479.0 L 402.0,480.0 L 401.0,481.0 L 400.0,481.0 L 399.0,482.0 L 398.0,482.0 L 398.0,483.0 L 396.0,485.0 L 395.0,485.0 L 395.0,486.0 L 394.0,487.0 L 393.0,487.0 L 393.0,488.0 L 392.0,489.0 L 391.0,489.0 L 391.0,490.0 L 389.0,492.0 L 388.0,492.0 L 388.0,493.0 L 387.0,494.0 L 387.0,495.0 L 384.0,498.0 L 384.0,499.0 L 382.0,501.0 L 382.0,502.0 L 381.0,503.0 L 381.0,504.0 L 380.0,505.0 L 380.0,507.0 L 378.0,509.0 L 378.0,512.0 L 377.0,513.0 L 377.0,516.0 L 376.0,517.0 L 376.0,518.0 L 377.0,519.0 L 376.0,520.0 L 376.0,521.0 L 375.0,522.0 L 375.0,523.0 L 376.0,524.0 L 375.0,525.0 L 375.0,527.0 L 376.0,528.0 L 376.0,529.0 L 375.0,530.0 L 375.0,531.0 L 376.0,532.0 L 376.0,535.0 L 377.0,536.0 L 377.0,539.0 L 378.0,540.0 L 378.0,542.0 L 380.0,544.0 L 380.0,547.0 L 381.0,547.0 L 382.0,548.0 L 382.0,549.0 L 383.0,550.0 L 383.0,551.0 L 384.0,551.0 L 385.0,552.0 L 385.0,554.0 L 386.0,555.0 L 387.0,555.0 L 389.0,557.0 L 389.0,558.0 L 390.0,558.0 L 394.0,562.0 L 395.0,562.0 L 399.0,566.0 L 401.0,566.0 L 402.0,567.0 L 403.0,567.0 L 404.0,568.0 L 405.0,568.0 L 406.0,569.0 L 407.0,569.0 L 408.0,570.0 L 409.0,569.0 L 411.0,571.0 L 413.0,571.0 L 414.0,572.0 L 416.0,572.0 L 417.0,573.0 L 418.0,572.0 L 419.0,573.0 L 420.0,573.0 L 421.0,574.0 L 422.0,573.0 L 423.0,574.0 L 424.0,574.0 L 425.0,575.0 L 426.0,574.0 L 427.0,574.0 L 428.0,575.0 L 430.0,575.0 L 431.0,574.0 L 432.0,575.0 L 446.0,575.0 L 447.0,574.0 L 449.0,574.0 L 450.0,575.0 L 451.0,574.0 L 455.0,574.0 L 456.0,573.0 L 459.0,573.0 L 460.0,572.0 L 463.0,572.0 L 464.0,571.0 L 467.0,571.0 L 469.0,569.0 L 471.0,569.0 L 472.0,568.0 L 475.0,568.0 L 475.0,567.0 L 476.0,566.0 L 479.0,566.0 L 479.0,565.0 L 480.0,564.0 L 482.0,564.0 L 484.0,562.0 L 485.0,562.0 L 487.0,560.0 L 488.0,560.0 L 489.0,559.0 L 490.0,559.0 L 490.0,558.0 L 491.0,557.0 L 492.0,557.0 L 493.0,556.0 L 494.0,556.0 L 494.0,555.0 L 496.0,553.0 L 497.0,553.0 L 502.0,548.0 L 502.0,547.0 L 503.0,546.0 L 504.0,546.0 L 504.0,545.0 L 505.0,544.0 L 505.0,543.0 L 507.0,541.0 L 508.0,541.0 L 508.0,540.0 L 509.0,539.0 L 509.0,538.0 L 511.0,536.0 L 511.0,534.0 L 512.0,533.0 L 512.0,531.0 L 514.0,529.0 L 514.0,526.0 L 515.0,525.0 L 515.0,524.0 L 516.0,523.0 L 515.0,522.0 L 516.0,521.0 L 516.0,517.0 L 517.0,516.0 L 517.0,515.0 L 516.0,514.0 L 517.0,513.0 L 517.0,511.0 L 516.0,510.0 L 516.0,509.0 L 517.0,508.0 L 517.0,506.0 L 516.0,505.0 L 516.0,502.0 L 515.0,501.0 L 515.0,498.0 L 514.0,497.0 L 514.0,496.0 L 513.0,495.0 L 513.0,494.0 L 512.0,493.0 L 512.0,491.0 L 509.0,488.0 L 509.0,487.0 L 508.0,487.0 L 507.0,486.0 L 507.0,484.0 L 506.0,483.0 L 505.0,483.0 L 503.0,481.0 L 503.0,480.0 L 502.0,479.0 L 501.0,479.0 L 497.0,475.0 L 496.0,475.0 L 493.0,472.0 L 491.0,472.0 L 490.0,471.0 L 488.0,471.0 L 485.0,468.0 L 484.0,469.0 L 483.0,469.0 L 481.0,467.0 L 479.0,467.0 L 478.0,466.0 L 477.0,466.0 L 476.0,465.0 L 475.0,466.0 L 474.0,466.0 L 473.0,465.0 L 470.0,465.0 L 469.0,464.0 L 468.0,464.0 L 467.0,463.0 L 466.0,464.0 L 465.0,464.0 L 464.0,463.0 L 463.0,463.0 L 462.0,464.0 L 461.0,463.0 L 455.0,463.0 L 454.0,464.0 L 453.0,463.0 L 446.0,463.0 L 445.0,464.0 L 443.0,464.0 Z" /><path d="M 662.0,410.0 L 661.0,411.0 L 658.0,411.0 L 657.0,412.0 L 656.0,411.0 L 653.0,411.0 L 652.0,412.0 L 649.0,412.0 L 648.0,413.0 L 645.0,413.0 L 644.0,414.0 L 641.0,414.0 L 640.0,415.0 L 637.0,415.0 L 637.0,416.0 L 636.0,417.0 L 633.0,417.0 L 632.0,418.0 L 631.0,418.0 L 630.0,419.0 L 629.0,419.0 L 628.0,420.0 L 627.0,420.0 L 626.0,421.0 L 625.0,421.0 L 623.0,423.0 L 621.0,423.0 L 621.0,424.0 L 620.0,425.0 L 618.0,425.0 L 618.0,426.0 L 617.0,427.0 L 615.0,427.0 L 614.0,428.0 L 614.0,429.0 L 613.0,430.0 L 612.0,430.0 L 611.0,431.0 L 610.0,431.0 L 610.0,432.0 L 608.0,434.0 L 607.0,434.0 L 606.0,435.0 L 606.0,436.0 L 603.0,439.0 L 602.0,439.0 L 602.0,440.0 L 601.0,441.0 L 601.0,442.0 L 598.0,445.0 L 598.0,446.0 L 595.0,449.0 L 595.0,452.0 L 593.0,454.0 L 593.0,455.0 L 592.0,456.0 L 592.0,458.0 L 591.0,459.0 L 592.0,460.0 L 590.0,462.0 L 590.0,466.0 L 589.0,467.0 L 590.0,468.0 L 589.0,469.0 L 589.0,476.0 L 590.0,477.0 L 589.0,478.0 L 589.0,480.0 L 590.0,481.0 L 590.0,484.0 L 591.0,485.0 L 591.0,488.0 L 593.0,490.0 L 593.0,492.0 L 594.0,493.0 L 594.0,494.0 L 595.0,495.0 L 595.0,496.0 L 598.0,499.0 L 598.0,500.0 L 600.0,502.0 L 600.0,503.0 L 601.0,504.0 L 602.0,503.0 L 603.0,504.0 L 603.0,505.0 L 604.0,506.0 L 604.0,507.0 L 605.0,507.0 L 606.0,508.0 L 607.0,508.0 L 609.0,510.0 L 609.0,511.0 L 611.0,511.0 L 614.0,514.0 L 617.0,514.0 L 619.0,516.0 L 620.0,516.0 L 621.0,517.0 L 622.0,517.0 L 623.0,518.0 L 626.0,518.0 L 628.0,520.0 L 629.0,519.0 L 630.0,520.0 L 631.0,520.0 L 632.0,521.0 L 633.0,520.0 L 634.0,521.0 L 636.0,521.0 L 637.0,522.0 L 638.0,521.0 L 639.0,522.0 L 644.0,522.0 L 645.0,523.0 L 646.0,522.0 L 647.0,522.0 L 648.0,523.0 L 649.0,523.0 L 650.0,522.0 L 651.0,522.0 L 652.0,523.0 L 653.0,523.0 L 654.0,522.0 L 656.0,522.0 L 657.0,523.0 L 658.0,523.0 L 659.0,522.0 L 662.0,522.0 L 663.0,521.0 L 664.0,522.0 L 666.0,522.0 L 667.0,521.0 L 670.0,521.0 L 671.0,520.0 L 674.0,520.0 L 675.0,519.0 L 678.0,519.0 L 679.0,518.0 L 682.0,518.0 L 682.0,517.0 L 683.0,516.0 L 686.0,516.0 L 687.0,515.0 L 689.0,515.0 L 691.0,513.0 L 692.0,513.0 L 693.0,512.0 L 694.0,512.0 L 695.0,511.0 L 696.0,511.0 L 697.0,510.0 L 698.0,510.0 L 700.0,508.0 L 701.0,508.0 L 703.0,506.0 L 704.0,506.0 L 705.0,505.0 L 706.0,505.0 L 706.0,504.0 L 708.0,502.0 L 709.0,502.0 L 709.0,501.0 L 710.0,500.0 L 711.0,500.0 L 712.0,499.0 L 713.0,499.0 L 713.0,497.0 L 714.0,496.0 L 715.0,496.0 L 717.0,494.0 L 717.0,493.0 L 721.0,489.0 L 721.0,488.0 L 723.0,486.0 L 723.0,485.0 L 724.0,484.0 L 724.0,483.0 L 725.0,482.0 L 725.0,480.0 L 727.0,478.0 L 727.0,475.0 L 728.0,474.0 L 728.0,473.0 L 729.0,472.0 L 729.0,470.0 L 730.0,469.0 L 730.0,468.0 L 729.0,467.0 L 730.0,466.0 L 730.0,461.0 L 731.0,460.0 L 730.0,459.0 L 730.0,456.0 L 731.0,455.0 L 730.0,454.0 L 730.0,451.0 L 729.0,450.0 L 729.0,447.0 L 728.0,446.0 L 728.0,443.0 L 727.0,443.0 L 726.0,442.0 L 726.0,439.0 L 725.0,439.0 L 724.0,438.0 L 724.0,436.0 L 723.0,435.0 L 722.0,435.0 L 721.0,434.0 L 721.0,432.0 L 720.0,432.0 L 719.0,431.0 L 719.0,430.0 L 717.0,428.0 L 716.0,428.0 L 715.0,427.0 L 715.0,426.0 L 714.0,425.0 L 713.0,425.0 L 712.0,424.0 L 711.0,424.0 L 710.0,423.0 L 710.0,422.0 L 709.0,421.0 L 707.0,421.0 L 705.0,419.0 L 703.0,419.0 L 701.0,417.0 L 699.0,417.0 L 698.0,416.0 L 697.0,416.0 L 696.0,415.0 L 694.0,415.0 L 693.0,414.0 L 692.0,414.0 L 691.0,413.0 L 690.0,414.0 L 689.0,413.0 L 688.0,413.0 L 687.0,412.0 L 686.0,413.0 L 685.0,412.0 L 684.0,412.0 L 683.0,411.0 L 682.0,412.0 L 681.0,411.0 L 679.0,411.0 L 678.0,412.0 L 677.0,411.0 L 675.0,411.0 L 674.0,410.0 L 673.0,411.0 L 672.0,411.0 L 671.0,410.0 L 670.0,410.0 L 669.0,411.0 L 668.0,411.0 L 667.0,410.0 L 666.0,410.0 L 665.0,411.0 L 664.0,411.0 L 663.0,410.0 Z" /></g><g class="mask label-3" fill="none" id="label-3" stroke="#9EE493" stroke-width="2"><path d="M 576.0,567.0 L 575.0,568.0 L 568.0,568.0 L 567.0,569.0 L 564.0,569.0 L 563.0,570.0 L 561.0,570.0 L 559.0,572.0 L 556.0,572.0 L 556.0,573.0 L 555.0,574.0 L 554.0,574.0 L 553.0,575.0 L 552.0,575.0 L 552.0,576.0 L 551.0,577.0 L 550.0,577.0 L 548.0,579.0 L 548.0,580.0 L 547.0,581.0 L 546.0,581.0 L 545.0,582.0 L 545.0,584.0 L 544.0,585.0 L 543.0,585.0 L 542.0,586.0 L 542.0,587.0 L 541.0,588.0 L 541.0,589.0 L 539.0,591.0 L 539.0,593.0 L 538.0,594.0 L 538.0,596.0 L 536.0,598.0 L 536.0,599.0 L 535.0,600.0 L 535.0,602.0 L 534.0,603.0 L 534.0,606.0 L 533.0,607.0 L 533.0,610.0 L 532.0,611.0 L 532.0,612.0 L 531.0,613.0 L 532.0,614.0 L 532.0,615.0 L 531.0,616.0 L 531.0,620.0 L 530.0,621.0 L 531.0,622.0 L 530.0,623.0 L 530.0,628.0 L 529.0,629.0 L 529.0,630.0 L 530.0,631.0 L 530.0,633.0 L 529.0,634.0 L 530.0,635.0 L 530.0,637.0 L 529.0,638.0 L 530.0,639.0 L 530.0,641.0 L 529.0,642.0 L 530.0,643.0 L 530.0,646.0 L 531.0,647.0 L 530.0,648.0 L 530.0,650.0 L 531.0,651.0 L 531.0,654.0 L 532.0,655.0 L 532.0,656.0 L 531.0,657.0 L 531.0,659.0 L 532.0,660.0 L 532.0,663.0 L 533.0,664.0 L 533.0,667.0 L 534.0,668.0 L 534.0,671.0 L 535.0,672.0 L 535.0,675.0 L 536.0,676.0 L 536.0,678.0 L 538.0,680.0 L 538.0,683.0 L 539.0,684.0 L 539.0,687.0 L 544.0,687.0 L 545.0,686.0 L 548.0,686.0 L 549.0,685.0 L 552.0,685.0 L 553.0,684.0 L 556.0,684.0 L 557.0,683.0 L 560.0,683.0 L 561.0,682.0 L 564.0,682.0 L 565.0,681.0 L 568.0,681.0 L 569.0,680.0 L 572.0,680.0 L 573.0,679.0 L 576.0,679.0 L 577.0,678.0 L 580.0,678.0 L 581.0,677.0 L 584.0,677.0 L 585.0,676.0 L 588.0,676.0 L 589.0,675.0 L 592.0,675.0 L 593.0,674.0 L 596.0,674.0 L 597.0,673.0 L 600.0,673.0 L 601.0,672.0 L 605.0,672.0 L 606.0,671.0 L 609.0,671.0 L 610.0,670.0 L 613.0,670.0 L 614.0,669.0 L 617.0,669.0 L 618.0,668.0 L 621.0,668.0 L 622.0,667.0 L 625.0,667.0 L 626.0,666.0 L 629.0,666.0 L 630.0,665.0 L 633.0,665.0 L 634.0,664.0 L 637.0,664.0 L 638.0,663.0 L 641.0,663.0 L 642.0,662.0 L 643.0,662.0 L 644.0,661.0 L 644.0,658.0 L 643.0,657.0 L 643.0,654.0 L 642.0,653.0 L 643.0,652.0 L 643.0,650.0 L 642.0,649.0 L 642.0,646.0 L 641.0,645.0 L 641.0,642.0 L 640.0,641.0 L 640.0,638.0 L 639.0,637.0 L 639.0,634.0 L 638.0,633.0 L 638.0,630.0 L 637.0,630.0 L 636.0,629.0 L 636.0,626.0 L 635.0,625.0 L 635.0,622.0 L 634.0,622.0 L 633.0,621.0 L 633.0,618.0 L 632.0,617.0 L 632.0,616.0 L 631.0,615.0 L 631.0,614.0 L 629.0,612.0 L 629.0,610.0 L 627.0,608.0 L 627.0,606.0 L 626.0,606.0 L 625.0,605.0 L 625.0,603.0 L 623.0,601.0 L 623.0,600.0 L 622.0,599.0 L 622.0,598.0 L 621.0,598.0 L 620.0,597.0 L 620.0,596.0 L 617.0,593.0 L 617.0,592.0 L 616.0,591.0 L 615.0,591.0 L 614.0,590.0 L 614.0,589.0 L 613.0,588.0 L 613.0,587.0 L 612.0,587.0 L 609.0,584.0 L 609.0,583.0 L 608.0,583.0 L 605.0,580.0 L 604.0,580.0 L 603.0,579.0 L 602.0,579.0 L 601.0,578.0 L 601.0,577.0 L 600.0,576.0 L 599.0,576.0 L 598.0,575.0 L 597.0,575.0 L 594.0,572.0 L 593.0,572.0 L 592.0,573.0 L 589.0,570.0 L 588.0,571.0 L 586.0,569.0 L 582.0,569.0 L 581.0,568.0 L 577.0,568.0 Z" /></g><g class="mask label-4" fill="none" id="label-4" stroke="#C88BFA" stroke-width="2"><path d="M 793.0,626.0 L 792.0,627.0 L 788.0,627.0 L 787.0,628.0 L 784.0,628.0 L 783.0,629.0 L 780.0,629.0 L 779.0,630.0 L 776.0,630.0 L 775.0,631.0 L 772.0,631.0 L 771.0,632.0 L 768.0,632.0 L 767.0,633.0 L 764.0,633.0 L 763.0,634.0 L 760.0,634.0 L 759.0,635.0 L 756.0,635.0 L 755.0,636.0 L 752.0,636.0 L 751.0,637.0 L 748.0,637.0 L 747.0,638.0 L 744.0,638.0 L 743.0,639.0 L 740.0,639.0 L 739.0,640.0 L 736.0,640.0 L 735.0,641.0 L 732.0,641.0 L 731.0,642.0 L 727.0,642.0 L 726.0,643.0 L 723.0,643.0 L 722.0,644.0 L 719.0,644.0 L 718.0,645.0 L 715.0,645.0 L 714.0,646.0 L 711.0,646.0 L 710.0,647.0 L 707.0,647.0 L 706.0,648.0 L 703.0,648.0 L 702.0,649.0 L 699.0,649.0 L 698.0,650.0 L 695.0,650.0 L 694.0,651.0 L 691.0,651.0 L 690.0,652.0 L 687.0,652.0 L 686.0,653.0 L 683.0,653.0 L 682.0,654.0 L 679.0,654.0 L 678.0,655.0 L 675.0,655.0 L 674.0,656.0 L 671.0,656.0 L 670.0,657.0 L 667.0,657.0 L 666.0,658.0 L 662.0,658.0 L 661.0,659.0 L 658.0,659.0 L 657.0,660.0 L 654.0,660.0 L 653.0,661.0 L 650.0,661.0 L 649.0,662.0 L 646.0,662.0 L 645.0,663.0 L 642.0,663.0 L 641.0,664.0 L 638.0,664.0 L 637.0,665.0 L 634.0,665.0 L 633.0,666.0 L 630.0,666.0 L 629.0,667.0 L 626.0,667.0 L 625.0,668.0 L 622.0,668.0 L 621.0,669.0 L 618.0,669.0 L 617.0,670.0 L 614.0,670.0 L 613.0,671.0 L 610.0,671.0 L 609.0,672.0 L 606.0,672.0 L 605.0,673.0 L 601.0,673.0 L 600.0,674.0 L 597.0,674.0 L 596.0,675.0 L 593.0,675.0 L 592.0,676.0 L 589.0,676.0 L 588.0,677.0 L 585.0,677.0 L 584.0,678.0 L 581.0,678.0 L 580.0,679.0 L 577.0,679.0 L 576.0,680.0 L 573.0,680.0 L 572.0,681.0 L 569.0,681.0 L 568.0,682.0 L 565.0,682.0 L 564.0,683.0 L 561.0,683.0 L 560.0,684.0 L 557.0,684.0 L 556.0,685.0 L 553.0,685.0 L 552.0,686.0 L 549.0,686.0 L 548.0,687.0 L 545.0,687.0 L 544.0,688.0 L 541.0,688.0 L 540.0,689.0 L 536.0,689.0 L 535.0,690.0 L 532.0,690.0 L 531.0,691.0 L 528.0,691.0 L 527.0,692.0 L 524.0,692.0 L 523.0,693.0 L 520.0,693.0 L 519.0,694.0 L 516.0,694.0 L 515.0,695.0 L 512.0,695.0 L 511.0,696.0 L 508.0,696.0 L 507.0,697.0 L 504.0,697.0 L 503.0,698.0 L 500.0,698.0 L 499.0,699.0 L 496.0,699.0 L 495.0,700.0 L 492.0,700.0 L 491.0,701.0 L 488.0,701.0 L 487.0,702.0 L 484.0,702.0 L 483.0,703.0 L 480.0,703.0 L 479.0,704.0 L 475.0,704.0 L 474.0,705.0 L 471.0,705.0 L 470.0,706.0 L 467.0,706.0 L 466.0,707.0 L 463.0,707.0 L 462.0,708.0 L 459.0,708.0 L 458.0,709.0 L 455.0,709.0 L 454.0,710.0 L 451.0,710.0 L 450.0,711.0 L 447.0,711.0 L 446.0,712.0 L 443.0,712.0 L 442.0,713.0 L 439.0,713.0 L 438.0,714.0 L 435.0,714.0 L 434.0,715.0 L 431.0,715.0 L 430.0,716.0 L 427.0,716.0 L 426.0,717.0 L 423.0,717.0 L 422.0,718.0 L 419.0,718.0 L 418.0,719.0 L 415.0,719.0 L 414.0,720.0 L 410.0,720.0 L 409.0,721.0 L 406.0,721.0 L 405.0,722.0 L 402.0,722.0 L 401.0,723.0 L 398.0,723.0 L 397.0,724.0 L 394.0,724.0 L 393.0,725.0 L 390.0,725.0 L 389.0,726.0 L 386.0,726.0 L 385.0,727.0 L 382.0,727.0 L 381.0,728.0 L 378.0,728.0 L 377.0,729.0 L 374.0,729.0 L 373.0,730.0 L 370.0,730.0 L 369.0,731.0 L 368.0,731.0 L 368.0,733.0 L 369.0,734.0 L 369.0,737.0 L 370.0,738.0 L 370.0,741.0 L 371.0,742.0 L 371.0,745.0 L 372.0,746.0 L 372.0,749.0 L 373.0,750.0 L 373.0,753.0 L 374.0,754.0 L 374.0,757.0 L 375.0,758.0 L 375.0,761.0 L 376.0,762.0 L 376.0,765.0 L 377.0,766.0 L 377.0,769.0 L 378.0,770.0 L 378.0,773.0 L 379.0,774.0 L 379.0,777.0 L 380.0,778.0 L 380.0,782.0 L 381.0,783.0 L 381.0,786.0 L 382.0,787.0 L 382.0,790.0 L 383.0,791.0 L 383.0,794.0 L 384.0,795.0 L 384.0,798.0 L 385.0,799.0 L 385.0,802.0 L 386.0,803.0 L 386.0,806.0 L 387.0,807.0 L 387.0,810.0 L 388.0,811.0 L 388.0,814.0 L 389.0,815.0 L 389.0,818.0 L 390.0,819.0 L 390.0,822.0 L 391.0,823.0 L 391.0,826.0 L 392.0,827.0 L 392.0,830.0 L 393.0,831.0 L 393.0,834.0 L 394.0,835.0 L 394.0,838.0 L 395.0,839.0 L 395.0,843.0 L 396.0,844.0 L 396.0,847.0 L 397.0,848.0 L 397.0,851.0 L 398.0,852.0 L 398.0,855.0 L 399.0,856.0 L 399.0,859.0 L 400.0,860.0 L 400.0,863.0 L 401.0,864.0 L 401.0,867.0 L 402.0,868.0 L 402.0,871.0 L 403.0,872.0 L 403.0,875.0 L 404.0,876.0 L 404.0,879.0 L 405.0,880.0 L 405.0,883.0 L 406.0,884.0 L 406.0,887.0 L 407.0,888.0 L 407.0,891.0 L 408.0,892.0 L 408.0,895.0 L 409.0,896.0 L 409.0,899.0 L 410.0,900.0 L 410.0,902.0 L 411.0,902.0 L 412.0,901.0 L 415.0,901.0 L 416.0,900.0 L 419.0,900.0 L 420.0,899.0 L 423.0,899.0 L 424.0,898.0 L 427.0,898.0 L 428.0,897.0 L 431.0,897.0 L 432.0,896.0 L 435.0,896.0 L 436.0,895.0 L 439.0,895.0 L 440.0,894.0 L 443.0,894.0 L 444.0,893.0 L 447.0,893.0 L 448.0,892.0 L 451.0,892.0 L 452.0,891.0 L 455.0,891.0 L 456.0,890.0 L 459.0,890.0 L 460.0,889.0 L 463.0,889.0 L 464.0,888.0 L 467.0,888.0 L 468.0,887.0 L 472.0,887.0 L 473.0,886.0 L 476.0,886.0 L 477.0,885.0 L 480.0,885.0 L 481.0,884.0 L 484.0,884.0 L 485.0,883.0 L 488.0,883.0 L 489.0,882.0 L 492.0,882.0 L 493.0,881.0 L 496.0,881.0 L 497.0,880.0 L 500.0,880.0 L 501.0,879.0 L 504.0,879.0 L 505.0,878.0 L 508.0,878.0 L 509.0,877.0 L 512.0,877.0 L 513.0,876.0 L 516.0,876.0 L 516.0,875.0 L 515.0,874.0 L 515.0,871.0 L 514.0,870.0 L 514.0,867.0 L 513.0,866.0 L 513.0,863.0 L 512.0,862.0 L 512.0,859.0 L 511.0,858.0 L 511.0,855.0 L 510.0,854.0 L 510.0,851.0 L 509.0,850.0 L 509.0,846.0 L 508.0,845.0 L 508.0,842.0 L 507.0,841.0 L 507.0,838.0 L 506.0,837.0 L 506.0,834.0 L 505.0,833.0 L 505.0,830.0 L 504.0,829.0 L 504.0,826.0 L 503.0,825.0 L 503.0,822.0 L 502.0,821.0 L 502.0,818.0 L 501.0,817.0 L 501.0,814.0 L 500.0,813.0 L 500.0,811.0 L 501.0,810.0 L 504.0,810.0 L 505.0,809.0 L 508.0,809.0 L 509.0,808.0 L 512.0,808.0 L 513.0,807.0 L 516.0,807.0 L 517.0,806.0 L 520.0,806.0 L 521.0,805.0 L 524.0,805.0 L 525.0,804.0 L 528.0,804.0 L 529.0,803.0 L 533.0,803.0 L 534.0,802.0 L 537.0,802.0 L 538.0,801.0 L 541.0,801.0 L 542.0,800.0 L 545.0,800.0 L 546.0,799.0 L 549.0,799.0 L 550.0,798.0 L 553.0,798.0 L 554.0,797.0 L 557.0,797.0 L 558.0,796.0 L 561.0,796.0 L 562.0,795.0 L 565.0,795.0 L 566.0,794.0 L 569.0,794.0 L 570.0,793.0 L 573.0,793.0 L 574.0,792.0 L 577.0,792.0 L 578.0,791.0 L 581.0,791.0 L 582.0,790.0 L 585.0,790.0 L 586.0,789.0 L 589.0,789.0 L 590.0,788.0 L 593.0,788.0 L 594.0,787.0 L 598.0,787.0 L 599.0,786.0 L 602.0,786.0 L 603.0,785.0 L 606.0,785.0 L 607.0,784.0 L 610.0,784.0 L 611.0,783.0 L 614.0,783.0 L 615.0,782.0 L 618.0,782.0 L 619.0,781.0 L 622.0,781.0 L 623.0,780.0 L 626.0,780.0 L 627.0,779.0 L 630.0,779.0 L 631.0,778.0 L 634.0,778.0 L 635.0,777.0 L 638.0,777.0 L 639.0,776.0 L 642.0,776.0 L 643.0,775.0 L 646.0,775.0 L 647.0,774.0 L 650.0,774.0 L 651.0,773.0 L 654.0,773.0 L 655.0,772.0 L 659.0,772.0 L 660.0,771.0 L 663.0,771.0 L 664.0,770.0 L 667.0,770.0 L 668.0,769.0 L 671.0,769.0 L 672.0,768.0 L 675.0,768.0 L 676.0,767.0 L 679.0,767.0 L 680.0,766.0 L 683.0,766.0 L 684.0,765.0 L 687.0,765.0 L 688.0,764.0 L 691.0,764.0 L 692.0,763.0 L 695.0,763.0 L 696.0,762.0 L 699.0,762.0 L 700.0,761.0 L 703.0,761.0 L 704.0,760.0 L 707.0,760.0 L 708.0,759.0 L 711.0,759.0 L 712.0,758.0 L 715.0,758.0 L 716.0,759.0 L 716.0,762.0 L 717.0,763.0 L 717.0,766.0 L 718.0,767.0 L 718.0,770.0 L 719.0,771.0 L 719.0,774.0 L 720.0,775.0 L 720.0,778.0 L 721.0,779.0 L 721.0,782.0 L 722.0,783.0 L 722.0,786.0 L 723.0,787.0 L 723.0,790.0 L 724.0,791.0 L 724.0,794.0 L 725.0,795.0 L 725.0,798.0 L 726.0,799.0 L 726.0,802.0 L 727.0,803.0 L 727.0,806.0 L 728.0,807.0 L 728.0,811.0 L 729.0,812.0 L 729.0,815.0 L 730.0,816.0 L 730.0,819.0 L 731.0,820.0 L 731.0,823.0 L 732.0,823.0 L 733.0,822.0 L 736.0,822.0 L 737.0,821.0 L 740.0,821.0 L 741.0,820.0 L 744.0,820.0 L 745.0,819.0 L 748.0,819.0 L 749.0,818.0 L 752.0,818.0 L 753.0,817.0 L 756.0,817.0 L 757.0,816.0 L 760.0,816.0 L 761.0,815.0 L 764.0,815.0 L 765.0,814.0 L 768.0,814.0 L 769.0,813.0 L 772.0,813.0 L 773.0,812.0 L 776.0,812.0 L 777.0,811.0 L 780.0,811.0 L 781.0,810.0 L 785.0,810.0 L 786.0,809.0 L 789.0,809.0 L 790.0,808.0 L 793.0,808.0 L 794.0,807.0 L 797.0,807.0 L 798.0,806.0 L 801.0,806.0 L 802.0,805.0 L 805.0,805.0 L 806.0,804.0 L 809.0,804.0 L 810.0,803.0 L 813.0,803.0 L 814.0,802.0 L 817.0,802.0 L 818.0,801.0 L 821.0,801.0 L 822.0,800.0 L 825.0,800.0 L 826.0,799.0 L 829.0,799.0 L 830.0,798.0 L 833.0,798.0 L 834.0,797.0 L 837.0,797.0 L 837.0,794.0 L 836.0,793.0 L 836.0,790.0 L 835.0,789.0 L 835.0,786.0 L 834.0,785.0 L 834.0,782.0 L 833.0,781.0 L 833.0,778.0 L 832.0,777.0 L 832.0,774.0 L 831.0,773.0 L 831.0,770.0 L 830.0,769.0 L 830.0,766.0 L 829.0,765.0 L 829.0,762.0 L 828.0,761.0 L 828.0,758.0 L 827.0,757.0 L 827.0,754.0 L 826.0,753.0 L 826.0,749.0 L 825.0,748.0 L 825.0,745.0 L 824.0,744.0 L 824.0,741.0 L 823.0,740.0 L 823.0,737.0 L 822.0,736.0 L 822.0,733.0 L 821.0,732.0 L 821.0,729.0 L 820.0,728.0 L 820.0,725.0 L 819.0,724.0 L 819.0,721.0 L 818.0,720.0 L 818.0,717.0 L 817.0,716.0 L 817.0,713.0 L 816.0,712.0 L 816.0,709.0 L 815.0,708.0 L 815.0,705.0 L 814.0,704.0 L 814.0,701.0 L 813.0,700.0 L 813.0,697.0 L 812.0,696.0 L 812.0,693.0 L 811.0,692.0 L 811.0,688.0 L 810.0,687.0 L 810.0,684.0 L 809.0,683.0 L 809.0,680.0 L 808.0,679.0 L 808.0,676.0 L 807.0,675.0 L 807.0,672.0 L 806.0,671.0 L 806.0,668.0 L 805.0,667.0 L 805.0,664.0 L 804.0,663.0 L 804.0,660.0 L 803.0,659.0 L 803.0,656.0 L 802.0,655.0 L 802.0,652.0 L 801.0,651.0 L 801.0,648.0 L 800.0,647.0 L 800.0,644.0 L 799.0,643.0 L 799.0,640.0 L 798.0,639.0 L 798.0,636.0 L 797.0,635.0 L 797.0,632.0 L 796.0,631.0 L 796.0,627.0 L 795.0,626.0 Z" /></g><g class="mask label-5" fill="none" id="label-5" stroke="#FA8072" stroke-width="2"><path d="M 712.0,759.0 L 711.0,760.0 L 708.0,760.0 L 707.0,761.0 L 704.0,761.0 L 703.0,762.0 L 700.0,762.0 L 699.0,763.0 L 696.0,763.0 L 695.0,764.0 L 692.0,764.0 L 691.0,765.0 L 688.0,765.0 L 687.0,766.0 L 684.0,766.0 L 683.0,767.0 L 680.0,767.0 L 679.0,768.0 L 676.0,768.0 L 675.0,769.0 L 672.0,769.0 L 671.0,770.0 L 668.0,770.0 L 667.0,771.0 L 664.0,771.0 L 663.0,772.0 L 660.0,772.0 L 659.0,773.0 L 655.0,773.0 L 654.0,774.0 L 651.0,774.0 L 650.0,775.0 L 647.0,775.0 L 646.0,776.0 L 643.0,776.0 L 642.0,777.0 L 639.0,777.0 L 638.0,778.0 L 635.0,778.0 L 634.0,779.0 L 631.0,779.0 L 630.0,780.0 L 627.0,780.0 L 626.0,781.0 L 623.0,781.0 L 622.0,782.0 L 619.0,782.0 L 618.0,783.0 L 615.0,783.0 L 614.0,784.0 L 611.0,784.0 L 610.0,785.0 L 607.0,785.0 L 606.0,786.0 L 603.0,786.0 L 602.0,787.0 L 599.0,787.0 L 598.0,788.0 L 594.0,788.0 L 593.0,789.0 L 590.0,789.0 L 589.0,790.0 L 586.0,790.0 L 585.0,791.0 L 582.0,791.0 L 581.0,792.0 L 578.0,792.0 L 577.0,793.0 L 574.0,793.0 L 573.0,794.0 L 570.0,794.0 L 569.0,795.0 L 566.0,795.0 L 565.0,796.0 L 562.0,796.0 L 561.0,797.0 L 558.0,797.0 L 557.0,798.0 L 554.0,798.0 L 553.0,799.0 L 550.0,799.0 L 549.0,800.0 L 546.0,800.0 L 545.0,801.0 L 542.0,801.0 L 541.0,802.0 L 538.0,802.0 L 537.0,803.0 L 534.0,803.0 L 533.0,804.0 L 529.0,804.0 L 528.0,805.0 L 525.0,805.0 L 524.0,806.0 L 521.0,806.0 L 520.0,807.0 L 517.0,807.0 L 516.0,808.0 L 513.0,808.0 L 512.0,809.0 L 509.0,809.0 L 508.0,810.0 L 505.0,810.0 L 504.0,811.0 L 501.0,811.0 L 501.0,813.0 L 502.0,814.0 L 502.0,817.0 L 503.0,818.0 L 503.0,821.0 L 504.0,822.0 L 504.0,825.0 L 505.0,826.0 L 505.0,829.0 L 506.0,830.0 L 506.0,833.0 L 507.0,834.0 L 507.0,837.0 L 508.0,838.0 L 508.0,841.0 L 509.0,842.0 L 509.0,845.0 L 510.0,846.0 L 510.0,850.0 L 511.0,851.0 L 511.0,854.0 L 512.0,855.0 L 512.0,858.0 L 513.0,859.0 L 513.0,862.0 L 514.0,863.0 L 514.0,866.0 L 515.0,867.0 L 515.0,870.0 L 516.0,871.0 L 516.0,874.0 L 517.0,875.0 L 517.0,878.0 L 518.0,879.0 L 518.0,882.0 L 519.0,883.0 L 519.0,886.0 L 520.0,887.0 L 520.0,890.0 L 521.0,891.0 L 521.0,894.0 L 522.0,895.0 L 522.0,898.0 L 523.0,899.0 L 523.0,902.0 L 524.0,903.0 L 524.0,906.0 L 525.0,907.0 L 525.0,910.0 L 526.0,911.0 L 526.0,915.0 L 527.0,916.0 L 527.0,918.0 L 530.0,918.0 L 531.0,917.0 L 534.0,917.0 L 535.0,916.0 L 538.0,916.0 L 539.0,915.0 L 542.0,915.0 L 543.0,914.0 L 546.0,914.0 L 547.0,913.0 L 550.0,913.0 L 551.0,912.0 L 554.0,912.0 L 555.0,911.0 L 558.0,911.0 L 559.0,910.0 L 562.0,910.0 L 563.0,909.0 L 566.0,909.0 L 567.0,908.0 L 570.0,908.0 L 571.0,907.0 L 574.0,907.0 L 575.0,906.0 L 578.0,906.0 L 579.0,905.0 L 583.0,905.0 L 584.0,904.0 L 587.0,904.0 L 588.0,903.0 L 591.0,903.0 L 592.0,902.0 L 595.0,902.0 L 596.0,901.0 L 599.0,901.0 L 600.0,900.0 L 603.0,900.0 L 604.0,899.0 L 607.0,899.0 L 608.0,898.0 L 611.0,898.0 L 612.0,897.0 L 615.0,897.0 L 616.0,896.0 L 619.0,896.0 L 620.0,895.0 L 623.0,895.0 L 624.0,894.0 L 627.0,894.0 L 628.0,893.0 L 631.0,893.0 L 632.0,892.0 L 635.0,892.0 L 636.0,891.0 L 639.0,891.0 L 640.0,890.0 L 644.0,890.0 L 645.0,889.0 L 648.0,889.0 L 649.0,888.0 L 652.0,888.0 L 653.0,887.0 L 656.0,887.0 L 657.0,886.0 L 660.0,886.0 L 661.0,885.0 L 664.0,885.0 L 665.0,884.0 L 668.0,884.0 L 669.0,883.0 L 672.0,883.0 L 673.0,882.0 L 676.0,882.0 L 677.0,881.0 L 680.0,881.0 L 681.0,880.0 L 684.0,880.0 L 685.0,879.0 L 688.0,879.0 L 689.0,878.0 L 692.0,878.0 L 693.0,877.0 L 696.0,877.0 L 697.0,876.0 L 700.0,876.0 L 701.0,875.0 L 705.0,875.0 L 706.0,874.0 L 709.0,874.0 L 710.0,873.0 L 713.0,873.0 L 714.0,872.0 L 717.0,872.0 L 718.0,871.0 L 721.0,871.0 L 722.0,870.0 L 725.0,870.0 L 726.0,869.0 L 729.0,869.0 L 730.0,868.0 L 733.0,868.0 L 734.0,867.0 L 737.0,867.0 L 738.0,866.0 L 741.0,866.0 L 741.0,864.0 L 740.0,863.0 L 740.0,860.0 L 739.0,859.0 L 739.0,856.0 L 738.0,855.0 L 738.0,852.0 L 737.0,851.0 L 737.0,848.0 L 736.0,847.0 L 736.0,844.0 L 735.0,843.0 L 735.0,840.0 L 734.0,839.0 L 734.0,836.0 L 733.0,835.0 L 733.0,832.0 L 732.0,831.0 L 732.0,828.0 L 731.0,827.0 L 731.0,824.0 L 730.0,823.0 L 730.0,820.0 L 729.0,819.0 L 729.0,816.0 L 728.0,815.0 L 728.0,812.0 L 727.0,811.0 L 727.0,807.0 L 726.0,806.0 L 726.0,803.0 L 725.0,802.0 L 725.0,799.0 L 724.0,798.0 L 724.0,795.0 L 723.0,794.0 L 723.0,791.0 L 722.0,790.0 L 722.0,787.0 L 721.0,786.0 L 721.0,783.0 L 720.0,782.0 L 720.0,779.0 L 719.0,778.0 L 719.0,775.0 L 718.0,774.0 L 718.0,771.0 L 717.0,770.0 L 717.0,767.0 L 716.0,766.0 L 716.0,763.0 L 715.0,762.0 L 715.0,759.0 Z" /></g><g class="landmarks" fill="none" id="landmarks" stroke="#000000"><circle cx="528.2242" cy="743.5404" r="1.5" /><text font-size="8px" x="531.2241801767037" y="746.5403656813024">0</text><circle cx="543.5097" cy="666.9544" r="1.5" /><text font-size="8px" x="546.509741452714" y="669.9544090118851">1</text><circle cx="539.9364" cy="686.9318" r="1.5" /><text font-size="8px" x="542.9363763361059" y="689.9317529905735">2</text><circle cx="538.5254" cy="587.0922" r="1.5" /><text font-size="8px" x="541.5253813592846" y="590.0922229006385">3</text><circle cx="547.3222" cy="643.7931" r="1.5" /><text font-size="8px" x="550.3222405554582" y="646.7930694118895">4</text><circle cx="552.5772" cy="612.7176" r="1.5" /><text font-size="8px" x="555.5772327511762" y="615.7175826332822">5</text><circle cx="565.6018" cy="536.3607" r="1.5" /><text font-size="8px" x="568.6017812831363" y="539.360696922613">6</text><circle cx="420.6813" cy="503.621" r="1.5" /><text font-size="8px" x="423.68130419496276" y="506.6210347025258">7</text><circle cx="574.6725" cy="480.5537" r="1.5" /><text font-size="8px" x="577.672529221865" y="483.5537008698369">8</text><circle cx="579.3105" cy="450.1634" r="1.5" /><text font-size="8px" x="582.3105468352645" y="453.16337271145767">9</text><circle cx="596.4494" cy="336.8119" r="1.5" /><text font-size="8px" x="599.4493570177997" y="339.81194429113293">10</text><circle cx="526.8524" cy="751.5637" r="1.5" /><text font-size="8px" x="529.8524441384897" y="754.5637057704346">11</text><circle cx="525.5232" cy="759.2797" r="1.5" /><text font-size="8px" x="528.523229120272" y="762.2796994651917">12</text><circle cx="524.768" cy="764.2712" r="1.5" /><text font-size="8px" x="527.7680345038937" y="767.2712269169391">13</text><circle cx="524.8966" cy="764.2895" r="1.5" /><text font-size="8px" x="527.8966078286667" y="767.2894934766844">14</text><circle cx="523.478" cy="773.5546" r="1.5" /><text font-size="8px" x="526.4780209399986" y="776.5545747926326">15</text><circle cx="521.6443" cy="784.4805" r="1.5" /><text font-size="8px" x="524.644319320646" y="787.4805477302248">16</text><circle cx="519.6992" cy="796.1734" r="1.5" /><text font-size="8px" x="522.6992200792373" y="799.1734055476022">17</text><circle cx="517.1461" cy="820.6827" r="1.5" /><text font-size="8px" x="520.1460717350233" y="823.6827477897041">18</text><circle cx="541.74" cy="677.8703" r="1.5" /><text font-size="8px" x="544.7399649843803" y="680.8703271920106">19</text><circle cx="522.1336" cy="672.8988" r="1.5" /><text font-size="8px" x="525.1336263041381" y="675.8987501090369">20</text><circle cx="343.6035" cy="401.9061" r="1.5" /><text font-size="8px" x="346.6035482959991" y="404.9061286368985">21</text><circle cx="474.2097" cy="536.0833" r="1.5" /><text font-size="8px" x="477.2097334034239" y="539.0832862379119">22</text><circle cx="452.4774" cy="533.8888" r="1.5" /><text font-size="8px" x="455.4774019524526" y="536.8887873458813">23</text><circle cx="432.3089" cy="528.5277" r="1.5" /><text font-size="8px" x="435.3088549175868" y="531.5276830501779">24</text><circle cx="409.2218" cy="510.4392" r="1.5" /><text font-size="8px" x="412.2217737784224" y="513.4391747710349">25</text><circle cx="493.6552" cy="534.2022" r="1.5" /><text font-size="8px" x="496.655223378365" y="537.2021564582652">26</text><circle cx="454.6141" cy="463.3063" r="1.5" /><text font-size="8px" x="457.6141217521034" y="466.30628103363404">27</text><circle cx="478.9493" cy="469.7671" r="1.5" /><text font-size="8px" x="481.9492502806702" y="472.767105250781">28</text><circle cx="431.4022" cy="464.592" r="1.5" /><text font-size="8px" x="434.4022438766484" y="467.5919556356316">29</text><circle cx="415.6704" cy="471.8259" r="1.5" /><text font-size="8px" x="418.67036488457313" y="474.82592193780124">30</text><circle cx="385.7093" cy="522.3031" r="1.5" /><text font-size="8px" x="388.7093242703942" y="525.3030905833406">31</text><circle cx="433.2006" cy="841.7383" r="1.5" /><text font-size="8px" x="436.2005741356454" y="844.7382996301221">32</text><circle cx="414.6702" cy="495.842" r="1.5" /><text font-size="8px" x="417.6701901731118" y="498.8419726285457">33</text><circle cx="313.8868" cy="498.0151" r="1.5" /><text font-size="8px" x="316.88677031169897" y="501.01513659830425">34</text><circle cx="361.6045" cy="503.2714" r="1.5" /><text font-size="8px" x="364.6044601422839" y="506.2713510983226">35</text><circle cx="439.9683" cy="625.7252" r="1.5" /><text font-size="8px" x="442.96825979737037" y="628.7252239870082">36</text><circle cx="504.4536" cy="734.1637" r="1.5" /><text font-size="8px" x="507.4536455496341" y="737.1637467659109">37</text><circle cx="503.4996" cy="753.8839" r="1.5" /><text font-size="8px" x="506.4996413804703" y="756.883852901591">38</text><circle cx="479.7339" cy="735.9551" r="1.5" /><text font-size="8px" x="482.7338814553383" y="738.9551177898293">39</text><circle cx="462.3963" cy="739.0395" r="1.5" /><text font-size="8px" x="465.39633994572694" y="742.0395265997283">40</text><circle cx="484.3291" cy="750.1996" r="1.5" /><text font-size="8px" x="487.3290547310221" y="753.1996340852407">41</text><circle cx="468.6554" cy="747.9576" r="1.5" /><text font-size="8px" x="471.655386094253" y="750.9575603661535">42</text><circle cx="427.4599" cy="766.1531" r="1.5" /><text font-size="8px" x="430.45986104614985" y="769.1530911895513">43</text><circle cx="525.9562" cy="663.1812" r="1.5" /><text font-size="8px" x="528.9562470320086" y="666.1812005969329">44</text><circle cx="526.7457" cy="640.5391" r="1.5" /><text font-size="8px" x="529.7457282642146" y="643.5390596361766">45</text><circle cx="385.3629" cy="451.8416" r="1.5" /><text font-size="8px" x="388.362944041035" y="454.84163587251">46</text><circle cx="494.5781" cy="575.578" r="1.5" /><text font-size="8px" x="497.57814331160205" y="578.5779890836907">47</text><circle cx="479.4466" cy="646.9242" r="1.5" /><text font-size="8px" x="482.44659514467594" y="649.9241768605305">48</text><circle cx="480.1269" cy="634.1854" r="1.5" /><text font-size="8px" x="483.12691099316544" y="637.1853871996263">49</text><circle cx="373.2626" cy="611.5005" r="1.5" /><text font-size="8px" x="376.262550588133" y="614.5005234454724">50</text><circle cx="532.8485" cy="611.926" r="1.5" /><text font-size="8px" x="535.8484786544485" y="614.9259711058869">51</text><circle cx="441.895" cy="435.415" r="1.5" /><text font-size="8px" x="444.89499789992556" y="438.41495702862665">52</text><circle cx="410.1182" cy="438.8597" r="1.5" /><text font-size="8px" x="413.1181851026495" y="441.8596767782486">53</text><circle cx="372.5917" cy="365.6262" r="1.5" /><text font-size="8px" x="375.5917242224582" y="368.62621102156027">54</text><circle cx="532.8302" cy="469.7894" r="1.5" /><text font-size="8px" x="535.8301848571406" y="472.7894252714218">55</text><circle cx="498.7415" cy="484.0094" r="1.5" /><text font-size="8px" x="501.7415115718974" y="487.0093592369302">56</text><circle cx="414.0531" cy="742.865" r="1.5" /><text font-size="8px" x="417.05311788511347" y="745.8649723381013">57</text><circle cx="298.5268" cy="717.5763" r="1.5" /><text font-size="8px" x="301.5267757944209" y="720.576295944217">58</text><circle cx="493.3992" cy="662.3118" r="1.5" /><text font-size="8px" x="496.39917164475423" y="665.3117898676685">59</text><circle cx="508.7226" cy="671.4465" r="1.5" /><text font-size="8px" x="511.72255216859025" y="674.446465196327">60</text><circle cx="439.5474" cy="743.7498" r="1.5" /><text font-size="8px" x="442.5473596918936" y="746.7497681623805">61</text><circle cx="444.1731" cy="744.8511" r="1.5" /><text font-size="8px" x="447.17310804779925" y="747.8510746614814">62</text><circle cx="399.4259" cy="423.6166" r="1.5" /><text font-size="8px" x="402.4259194336113" y="426.61661481516376">63</text><circle cx="476.8386" cy="655.9392" r="1.5" /><text font-size="8px" x="479.8386250183605" y="658.9392037170746">64</text><circle cx="482.4936" cy="443.4942" r="1.5" /><text font-size="8px" x="485.4936359659771" y="446.4942316327274">65</text><circle cx="481.2472" cy="425.6168" r="1.5" /><text font-size="8px" x="484.24720303732374" y="428.61677633713805">66</text><circle cx="469.4716" cy="327.6464" r="1.5" /><text font-size="8px" x="472.4715651504348" y="330.64641732404476">67</text><circle cx="385.3729" cy="393.2064" r="1.5" /><text font-size="8px" x="388.37290477552455" y="396.206361634288">68</text><circle cx="476.2992" cy="374.7001" r="1.5" /><text font-size="8px" x="479.29922043499346" y="377.7000608967659">69</text><circle cx="372.1412" cy="439.9618" r="1.5" /><text font-size="8px" x="375.1411501433438" y="442.9618480495009">70</text><circle cx="356.7264" cy="421.0143" r="1.5" /><text font-size="8px" x="359.7263813531379" y="424.0143137693375">71</text><circle cx="503.3078" cy="745.0939" r="1.5" /><text font-size="8px" x="506.3077998236231" y="748.0938894454727">72</text><circle cx="481.8941" cy="743.5701" r="1.5" /><text font-size="8px" x="484.89408629104116" y="746.570107469647">73</text><circle cx="465.3738" cy="743.565" r="1.5" /><text font-size="8px" x="468.3737721964768" y="746.565027239438">74</text><circle cx="497.418" cy="666.8151" r="1.5" /><text font-size="8px" x="500.41795440448584" y="669.815128853013">75</text><circle cx="441.9194" cy="744.3183" r="1.5" /><text font-size="8px" x="444.91937684928234" y="747.3183148319906">76</text><circle cx="451.0372" cy="751.3221" r="1.5" /><text font-size="8px" x="454.03722284399396" y="754.3220735479879">77</text><circle cx="446.7474" cy="745.5176" r="1.5" /><text font-size="8px" x="449.74737375912036" y="748.5175993506089">78</text><circle cx="504.128" cy="657.6076" r="1.5" /><text font-size="8px" x="507.12804438300986" y="660.6076481955369">79</text><circle cx="471.1945" cy="751.1549" r="1.5" /><text font-size="8px" x="474.1945384069321" y="754.1549348482275">80</text><circle cx="486.5424" cy="754.6099" r="1.5" /><text font-size="8px" x="489.54242225430266" y="757.6099398407542">81</text><circle cx="504.4328" cy="759.1855" r="1.5" /><text font-size="8px" x="507.4328165320105" y="762.185454229262">82</text><circle cx="489.4703" cy="815.2644" r="1.5" /><text font-size="8px" x="492.47032122711425" y="818.2644167502249">83</text><circle cx="494.5149" cy="789.4439" r="1.5" /><text font-size="8px" x="497.5148511069143" y="792.4438690045077">84</text><circle cx="497.3952" cy="777.8733" r="1.5" /><text font-size="8px" x="500.39519101245094" y="780.8733166186306">85</text><circle cx="500.8533" cy="767.4331" r="1.5" /><text font-size="8px" x="503.85333232121764" y="770.4331002066664">86</text><circle cx="504.5416" cy="759.2612" r="1.5" /><text font-size="8px" x="507.541648988376" y="762.2612429446532">87</text><circle cx="471.2772" cy="751.2513" r="1.5" /><text font-size="8px" x="474.2772036159124" y="754.251272746453">88</text><circle cx="466.6934" cy="754.3866" r="1.5" /><text font-size="8px" x="469.6933822706811" y="757.3865951995954">89</text><circle cx="461.6395" cy="758.9399" r="1.5" /><text font-size="8px" x="464.6394830386856" y="761.9398897996036">90</text><circle cx="457.2531" cy="764.789" r="1.5" /><text font-size="8px" x="460.2530813907323" y="767.7889570900247">91</text><circle cx="444.5571" cy="710.6256" r="1.5" /><text font-size="8px" x="447.5571079539985" y="713.6255584211923">92</text><circle cx="293.7542" cy="598.3319" r="1.5" /><text font-size="8px" x="296.75416343587096" y="601.3318586419618">93</text><circle cx="540.987" cy="682.1237" r="1.5" /><text font-size="8px" x="543.9870001513175" y="685.1237170728139">94</text><circle cx="459.7042" cy="748.66" r="1.5" /><text font-size="8px" x="462.70420781305745" y="751.6600495784782">95</text><circle cx="455.4485" cy="749.7596" r="1.5" /><text font-size="8px" x="458.4485462970264" y="752.7595973108491">96</text><circle cx="513.8307" cy="681.2719" r="1.5" /><text font-size="8px" x="516.8307201522077" y="684.2718532262979">97</text><circle cx="481.9" cy="669.9303" r="1.5" /><text font-size="8px" x="484.90000157564066" y="672.9302740733859">98</text><circle cx="511.4272" cy="676.4435" r="1.5" /><text font-size="8px" x="514.4271652735838" y="679.443528085457">99</text><circle cx="469.2018" cy="584.8573" r="1.5" /><text font-size="8px" x="472.20175575897406" y="587.8572962034002">100</text><circle cx="430.1683" cy="593.9617" r="1.5" /><text font-size="8px" x="433.16832494501625" y="596.9616764246813">101</text><circle cx="474.7689" cy="643.1078" r="1.5" /><text font-size="8px" x="477.76893295500815" y="646.1077643618409">102</text><circle cx="412.796" cy="339.4992" r="1.5" /><text font-size="8px" x="415.79602866760376" y="342.499206191467">103</text><circle cx="423.6081" cy="376.4131" r="1.5" /><text font-size="8px" x="426.6080917476485" y="379.4130649138941">104</text><circle cx="436.6343" cy="417.4786" r="1.5" /><text font-size="8px" x="439.6342625882261" y="420.4785805362957">105</text><circle cx="442.6297" cy="783.7559" r="1.5" /><text font-size="8px" x="445.62973475681713" y="786.7558819945233">106</text><circle cx="530.4879" cy="439.2453" r="1.5" /><text font-size="8px" x="533.4878547362742" y="442.24527411947975">107</text><circle cx="528.8602" cy="381.686" r="1.5" /><text font-size="8px" x="531.8602210212998" y="384.6860448917404">108</text><circle cx="528.391" cy="327.6221" r="1.5" /><text font-size="8px" x="531.39098440643" y="330.6221132333296">109</text><circle cx="416.6381" cy="520.7758" r="1.5" /><text font-size="8px" x="419.6380941442734" y="523.775831886036">110</text><circle cx="357.7425" cy="534.8198" r="1.5" /><text font-size="8px" x="360.74248167683066" y="537.8198475912665">111</text><circle cx="506.9426" cy="531.1627" r="1.5" /><text font-size="8px" x="509.9426219903298" y="534.1627119261467">112</text><circle cx="391.4401" cy="479.7701" r="1.5" /><text font-size="8px" x="394.4400519026697" y="482.7701354315499">113</text><circle cx="512.3122" cy="563.3468" r="1.5" /><text font-size="8px" x="515.312243161268" y="566.3467821047924">114</text><circle cx="493.1573" cy="641.4973" r="1.5" /><text font-size="8px" x="496.15734006501" y="644.4973255036799">115</text><circle cx="326.0243" cy="544.8095" r="1.5" /><text font-size="8px" x="329.0243117074437" y="547.80951061422">116</text><circle cx="371.0967" cy="552.847" r="1.5" /><text font-size="8px" x="374.096705585639" y="555.8470308993874">117</text><circle cx="398.6513" cy="565.7545" r="1.5" /><text font-size="8px" x="401.6513083490371" y="568.7545108282025">118</text><circle cx="441.0981" cy="569.4725" r="1.5" /><text font-size="8px" x="444.09811046507775" y="572.4724698626924">119</text><circle cx="473.1401" cy="565.8004" r="1.5" /><text font-size="8px" x="476.14006467931426" y="568.8003723831181">120</text><circle cx="497.6195" cy="559.2977" r="1.5" /><text font-size="8px" x="500.6195121314836" y="562.2976622086444">121</text><circle cx="544.8406" cy="538.3854" r="1.5" /><text font-size="8px" x="547.8405670601352" y="541.3854364828171">122</text><circle cx="320.9787" cy="593.8751" r="1.5" /><text font-size="8px" x="323.97868220386977" y="596.8750847648598">123</text><circle cx="372.3416" cy="474.5629" r="1.5" /><text font-size="8px" x="375.3415685742452" y="477.56292002380644">124</text><circle cx="531.1175" cy="675.1351" r="1.5" /><text font-size="8px" x="534.1174635381016" y="678.135138893096">125</text><circle cx="492.4581" cy="598.9915" r="1.5" /><text font-size="8px" x="495.45811141426964" y="601.991475133977">126</text><circle cx="307.986" cy="494.48" r="1.5" /><text font-size="8px" x="310.9860393155246" y="497.47996703935735">127</text><circle cx="516.8567" cy="550.4391" r="1.5" /><text font-size="8px" x="519.8567106764968" y="553.4391066119301">128</text><circle cx="472.6448" cy="643.5568" r="1.5" /><text font-size="8px" x="475.64475678037104" y="646.5568107593339">129</text><circle cx="403.7396" cy="495.7609" r="1.5" /><text font-size="8px" x="406.73956308395736" y="498.7609079444061">130</text><circle cx="494.9788" cy="626.2081" r="1.5" /><text font-size="8px" x="497.97877489309076" y="629.2080513569343">131</text><circle cx="291.6087" cy="656.2429" r="1.5" /><text font-size="8px" x="294.60874433586326" y="659.242924395299">132</text><circle cx="508.8333" cy="523.5419" r="1.5" /><text font-size="8px" x="511.83330388646584" y="526.541905403893">133</text><circle cx="513.7608" cy="616.5246" r="1.5" /><text font-size="8px" x="516.7607987628568" y="619.5246341353912">134</text><circle cx="342.4378" cy="777.9535" r="1.5" /><text font-size="8px" x="345.4378215093844" y="780.9534974376314">135</text><circle cx="339.7704" cy="803.9797" r="1.5" /><text font-size="8px" x="342.7704098933296" y="806.9796995305769">136</text><circle cx="296.8249" cy="595.7986" r="1.5" /><text font-size="8px" x="299.82494929843637" y="598.7986013873757">137</text><circle cx="317.1975" cy="743.8735" r="1.5" /><text font-size="8px" x="320.197469788268" y="746.8735455713567">138</text><circle cx="335.286" cy="455.5197" r="1.5" /><text font-size="8px" x="338.28599927481054" y="458.51974767365493">139</text><circle cx="425.0092" cy="862.627" r="1.5" /><text font-size="8px" x="428.0091642133351" y="865.6269701130884">140</text><circle cx="532.6695" cy="679.8267" r="1.5" /><text font-size="8px" x="535.6694715985112" y="682.8267131221393">141</text><circle cx="469.9109" cy="612.2173" r="1.5" /><text font-size="8px" x="472.91086114472114" y="615.217252671568">142</text><circle cx="340.5046" cy="504.424" r="1.5" /><text font-size="8px" x="343.5045937221644" y="507.4240286932052">143</text><circle cx="437.8939" cy="515.8565" r="1.5" /><text font-size="8px" x="440.8938768113327" y="518.8565422689911">144</text><circle cx="454.7609" cy="521.5156" r="1.5" /><text font-size="8px" x="457.76094152241035" y="524.5155888914414">145</text><circle cx="446.9717" cy="753.7198" r="1.5" /><text font-size="8px" x="449.9716767774104" y="756.7197821932212">146</text><circle cx="317.1608" cy="641.1747" r="1.5" /><text font-size="8px" x="320.1607736525042" y="644.1747209707767">147</text><circle cx="460.1526" cy="897.8941" r="1.5" /><text font-size="8px" x="463.15264922786014" y="900.8941497691228">148</text><circle cx="398.5724" cy="860.5876" r="1.5" /><text font-size="8px" x="401.5724316210109" y="863.5875829348125">149</text><circle cx="371.3438" cy="837.1897" r="1.5" /><text font-size="8px" x="374.3438031209593" y="840.1897353571866">150</text><circle cx="588.0144" cy="392.4806" r="1.5" /><text font-size="8px" x="591.0144376368768" y="395.4805796332699">151</text><circle cx="504.337" cy="909.2492" r="1.5" /><text font-size="8px" x="507.3369614474724" y="912.2491852179421">152</text><circle cx="472.8423" cy="523.7084" r="1.5" /><text font-size="8px" x="475.84225562929" y="526.7084471577305">153</text><circle cx="490.6209" cy="523.8448" r="1.5" /><text font-size="8px" x="493.6208693675387" y="526.8448410165665">154</text><circle cx="502.518" cy="524.3644" r="1.5" /><text font-size="8px" x="505.51802938136177" y="527.3644064925481">155</text><circle cx="355.1214" cy="467.4242" r="1.5" /><text font-size="8px" x="358.1214250193139" y="470.424169101099">156</text><circle cx="492.6763" cy="499.5879" r="1.5" /><text font-size="8px" x="495.6762899423162" y="502.5878550325218">157</text><circle cx="475.471" cy="487.8059" r="1.5" /><text font-size="8px" x="478.4709887689995" y="490.80591380381816">158</text><circle cx="457.1541" cy="483.0704" r="1.5" /><text font-size="8px" x="460.1540548383708" y="486.07038519909486">159</text><circle cx="438.6125" cy="483.9632" r="1.5" /><text font-size="8px" x="441.6124758541887" y="486.96315959829235">160</text><circle cx="426.9456" cy="488.3295" r="1.5" /><text font-size="8px" x="429.94558919795963" y="491.32947889978266">161</text><circle cx="323.3869" cy="442.2866" r="1.5" /><text font-size="8px" x="326.3869439586871" y="445.2866232549935">162</text><circle cx="427.4451" cy="509.5273" r="1.5" /><text font-size="8px" x="430.44511637702317" y="512.5273268657003">163</text><circle cx="536.4985" cy="705.6223" r="1.5" /><text font-size="8px" x="539.4984997624985" y="708.6223227885152">164</text><circle cx="467.7218" cy="701.721" r="1.5" /><text font-size="8px" x="470.7217759427166" y="704.7210235934218">165</text><circle cx="494.0531" cy="658.983" r="1.5" /><text font-size="8px" x="497.0530839647756" y="661.9830130413155">166</text><circle cx="508.0977" cy="701.6367" r="1.5" /><text font-size="8px" x="511.0976926862836" y="704.63668530483">167</text><circle cx="570.4018" cy="508.0567" r="1.5" /><text font-size="8px" x="573.401766491114" y="511.0566613916692">168</text><circle cx="370.0066" cy="810.9615" r="1.5" /><text font-size="8px" x="373.0065684238311" y="813.9614572432434">169</text><circle cx="396.5763" cy="837.0157" r="1.5" /><text font-size="8px" x="399.5763459275976" y="840.0157166195286">170</text><circle cx="461.3353" cy="883.4696" r="1.5" /><text font-size="8px" x="464.3352847430024" y="886.4695713842473">171</text><circle cx="315.9694" cy="767.2199" r="1.5" /><text font-size="8px" x="318.969423821164" y="770.219916390865">172</text><circle cx="504.0229" cy="514.4357" r="1.5" /><text font-size="8px" x="507.0229347948874" y="517.4357039202863">173</text><circle cx="524.8855" cy="572.9739" r="1.5" /><text font-size="8px" x="527.8855373704312" y="575.9738882511914">174</text><circle cx="506.7352" cy="893.9126" r="1.5" /><text font-size="8px" x="509.73515863778937" y="896.9126154096036">175</text><circle cx="426.9697" cy="881.2833" r="1.5" /><text font-size="8px" x="429.9697260322024" y="884.2833386083009">176</text><circle cx="294.9023" cy="648.3583" r="1.5" /><text font-size="8px" x="297.9022959945113" y="651.3583210595917">177</text><circle cx="486.6242" cy="754.7243" r="1.5" /><text font-size="8px" x="489.62415635303716" y="757.7243320974613">178</text><circle cx="481.6158" cy="760.5716" r="1.5" /><text font-size="8px" x="484.6157959778275" y="763.5715860757263">179</text><circle cx="477.2472" cy="768.3722" r="1.5" /><text font-size="8px" x="480.24717621072455" y="771.3721995630137">180</text><circle cx="473.446" cy="778.383" r="1.5" /><text font-size="8px" x="476.44599137390344" y="781.3830492157483">181</text><circle cx="462.7806" cy="800.8333" r="1.5" /><text font-size="8px" x="465.78062056534895" y="803.8332575942391">182</text><circle cx="455.9477" cy="746.2416" r="1.5" /><text font-size="8px" x="458.94766668250975" y="749.2415613646199">183</text><circle cx="452.3305" cy="743.8261" r="1.5" /><text font-size="8px" x="455.3305182438776" y="746.8261192724779">184</text><circle cx="449.4706" cy="741.3863" r="1.5" /><text font-size="8px" x="452.4705718648713" y="744.3863084301992">185</text><circle cx="425.3025" cy="724.5081" r="1.5" /><text font-size="8px" x="428.30254481513964" y="727.50809645729">186</text><circle cx="346.1482" cy="658.161" r="1.5" /><text font-size="8px" x="349.1482374545551" y="661.1610387432926">187</text><circle cx="529.3178" cy="549.227" r="1.5" /><text font-size="8px" x="532.3177589215151" y="552.2270150518749">188</text><circle cx="526.7518" cy="507.1995" r="1.5" /><text font-size="8px" x="529.7517684197085" y="510.19945370253276">189</text><circle cx="513.5256" cy="507.6966" r="1.5" /><text font-size="8px" x="516.5255664416948" y="510.69663513356886">190</text><circle cx="459.6928" cy="748.569" r="1.5" /><text font-size="8px" x="462.6927598076552" y="751.5690130728173">191</text><circle cx="334.3811" cy="712.6748" r="1.5" /><text font-size="8px" x="337.3811402104757" y="715.6747767869628">192</text><circle cx="545.4231" cy="509.1527" r="1.5" /><text font-size="8px" x="548.4230620898259" y="512.1527423221585">193</text><circle cx="447.3662" cy="820.9464" r="1.5" /><text font-size="8px" x="450.3661908502744" y="823.9463595598312">194</text><circle cx="557.0345" cy="586.6578" r="1.5" /><text font-size="8px" x="560.0344874576028" y="589.6577959917198">195</text><circle cx="541.1572" cy="563.8219" r="1.5" /><text font-size="8px" x="544.1572479202953" y="566.8218860768498">196</text><circle cx="561.1627" cy="562.3063" r="1.5" /><text font-size="8px" x="564.1626542315013" y="565.3062700792758">197</text><circle cx="504.3352" cy="606.8048" r="1.5" /><text font-size="8px" x="507.33523142318813" y="609.8047600003601">198</text><circle cx="509.891" cy="871.8453" r="1.5" /><text font-size="8px" x="512.8909818797639" y="874.8453462441978">199</text><circle cx="513.7854" cy="844.6885" r="1.5" /><text font-size="8px" x="516.7853909045502" y="847.6885453081231">200</text><circle cx="479.0068" cy="837.8251" r="1.5" /><text font-size="8px" x="482.0067834594421" y="840.82506153895">201</text><circle cx="404.2063" cy="772.7159" r="1.5" /><text font-size="8px" x="407.20633692282934" y="775.7159465015056">202</text><circle cx="451.0528" cy="658.5585" r="1.5" /><text font-size="8px" x="454.0528101051344" y="661.5584529411569">203</text><circle cx="423.423" cy="799.6254" r="1.5" /><text font-size="8px" x="426.423036415247" y="802.6254406590209">204</text><circle cx="399.7755" cy="646.5488" r="1.5" /><text font-size="8px" x="402.77549002821684" y="649.5487972119093">205</text><circle cx="426.4864" cy="677.7979" r="1.5" /><text font-size="8px" x="429.48641259496287" y="680.797895845409">206</text><circle cx="374.7621" cy="679.9235" r="1.5" /><text font-size="8px" x="377.76212669087687" y="682.9234642462866">207</text><circle cx="467.7507" cy="862.8431" r="1.5" /><text font-size="8px" x="470.75069766433387" y="865.8431455349915">208</text><circle cx="489.7996" cy="617.2229" r="1.5" /><text font-size="8px" x="492.799614473974" y="620.2228602111218">209</text><circle cx="382.287" cy="786.793" r="1.5" /><text font-size="8px" x="385.2870319660907" y="789.7929522277293">210</text><circle cx="407.3181" cy="815.5826" r="1.5" /><text font-size="8px" x="410.31805306642786" y="818.5826210740671">211</text><circle cx="390.5468" cy="742.6082" r="1.5" /><text font-size="8px" x="393.5467887632027" y="745.608175112234">212</text><circle cx="316.725" cy="681.5151" r="1.5" /><text font-size="8px" x="319.72501429590307" y="684.5150951491845">213</text><circle cx="360.7421" cy="741.5642" r="1.5" /><text font-size="8px" x="363.7421348973856" y="744.564183623878">214</text><circle cx="299.5535" cy="697.6682" r="1.5" /><text font-size="8px" x="302.5535442867685" y="700.668205809224">215</text><circle cx="404.1739" cy="703.8503" r="1.5" /><text font-size="8px" x="407.1739475187168" y="706.8502913831143">216</text><circle cx="509.3318" cy="585.677" r="1.5" /><text font-size="8px" x="512.3318482431954" y="588.6770294595585">217</text><circle cx="498.2127" cy="652.9052" r="1.5" /><text font-size="8px" x="501.2126574306278" y="655.90515150927">218</text><circle cx="484.9059" cy="655.6808" r="1.5" /><text font-size="8px" x="487.90590230915336" y="658.6807632468283">219</text><circle cx="508.8901" cy="639.9274" r="1.5" /><text font-size="8px" x="511.8900995051184" y="642.9273995037556">220</text><circle cx="513.5556" cy="482.5515" r="1.5" /><text font-size="8px" x="516.5555751789358" y="485.5515383687259">221</text><circle cx="480.4366" cy="461.2281" r="1.5" /><text font-size="8px" x="483.43661487785664" y="464.2281280776357">222</text><circle cx="449.5832" cy="453.8286" r="1.5" /><text font-size="8px" x="452.58322041438896" y="456.8286195217528">223</text><circle cx="423.0129" cy="455.3158" r="1.5" /><text font-size="8px" x="426.0128753890084" y="458.31575891932414">224</text><circle cx="403.5998" cy="463.659" r="1.5" /><text font-size="8px" x="406.59983376735534" y="466.6589808984686">225</text><circle cx="385.4919" cy="499.8541" r="1.5" /><text font-size="8px" x="388.49185417243" y="502.85411690922115">226</text><circle cx="302.2839" cy="545.6443" r="1.5" /><text font-size="8px" x="305.28389179167675" y="548.644304881728">227</text><circle cx="396.7552" cy="533.6864" r="1.5" /><text font-size="8px" x="399.7552375037917" y="536.6863665050291">228</text><circle cx="417.3716" cy="544.434" r="1.5" /><text font-size="8px" x="420.371570570461" y="547.4340153546104">229</text><circle cx="446.1783" cy="549.8824" r="1.5" /><text font-size="8px" x="449.1783238174677" y="552.8824011466374">230</text><circle cx="474.2487" cy="549.7436" r="1.5" /><text font-size="8px" x="477.2487258777619" y="552.7436001130447">231</text><circle cx="496.7608" cy="546.2304" r="1.5" /><text font-size="8px" x="499.7608435752061" y="549.2303795690747">232</text><circle cx="512.7127" cy="541.6049" r="1.5" /><text font-size="8px" x="515.7127144329148" y="544.6049454568562">233</text><circle cx="300.0759" cy="545.5607" r="1.5" /><text font-size="8px" x="303.0759175349918" y="548.56070744657">234</text><circle cx="484.2429" cy="661.0926" r="1.5" /><text font-size="8px" x="487.24289353577444" y="664.0926107900289">235</text><circle cx="520.9867" cy="594.5302" r="1.5" /><text font-size="8px" x="523.9866852465166" y="597.5301839502101">236</text><circle cx="511.9447" cy="657.0557" r="1.5" /><text font-size="8px" x="514.9446700012536" y="660.0557159296164">237</text><circle cx="521.1715" cy="669.273" r="1.5" /><text font-size="8px" x="524.1714852463555" y="672.2729652705672">238</text><circle cx="511.7772" cy="660.3564" r="1.5" /><text font-size="8px" x="514.7772340179305" y="663.3564377812722">239</text><circle cx="488.7934" cy="668.2711" r="1.5" /><text font-size="8px" x="491.79338150960257" y="671.271073859048">240</text><circle cx="524.781" cy="672.3363" r="1.5" /><text font-size="8px" x="527.7809530911705" y="675.3362611995026">241</text><circle cx="526.2448" cy="677.0934" r="1.5" /><text font-size="8px" x="529.2448467477498" y="680.0934007814287">242</text><circle cx="515.9332" cy="525.3523" r="1.5" /><text font-size="8px" x="518.933167025655" y="528.3523353920531">243</text><circle cx="526.0951" cy="531.2432" r="1.5" /><text font-size="8px" x="529.0950697572927" y="534.2432230156112">244</text><circle cx="532.3554" cy="535.3744" r="1.5" /><text font-size="8px" x="535.3554432667198" y="538.3744002052704">245</text><circle cx="420.276" cy="492.1623" r="1.5" /><text font-size="8px" x="423.27599672213535" y="495.1622586631007">246</text><circle cx="405.2024" cy="481.5429" r="1.5" /><text font-size="8px" x="408.20244832595563" y="484.5428661805063">247</text><circle cx="574.5373" cy="592.8692" r="1.5" /><text font-size="8px" x="577.5373366286011" y="595.8691890926677">248</text><circle cx="719.9368" cy="549.3092" r="1.5" /><text font-size="8px" x="722.9368027479685" y="552.3091889687717">249</text><circle cx="561.8922" cy="679.5886" r="1.5" /><text font-size="8px" x="564.892215299504" y="682.5886490961864">250</text><circle cx="821.0414" cy="477.7201" r="1.5" /><text font-size="8px" x="824.0413783616116" y="480.7201042309732">251</text><circle cx="660.3882" cy="564.2585" r="1.5" /><text font-size="8px" x="663.3882401866607" y="567.258450223979">252</text><circle cx="679.8038" cy="568.1024" r="1.5" /><text font-size="8px" x="682.8037706011282" y="571.102389919602">253</text><circle cx="699.5832" cy="569.2611" r="1.5" /><text font-size="8px" x="702.5832387461761" y="572.2611228283153">254</text><circle cx="728.0574" cy="558.6657" r="1.5" /><text font-size="8px" x="731.0573958748028" y="561.6657209865963">255</text><circle cx="645.0235" cy="556.9778" r="1.5" /><text font-size="8px" x="648.0235043497105" y="559.9777863511182">256</text><circle cx="697.5505" cy="499.031" r="1.5" /><text font-size="8px" x="700.5505016199634" y="502.03098120101424">257</text><circle cx="674.1574" cy="499.0197" r="1.5" /><text font-size="8px" x="677.1573923009875" y="502.0197190684182">258</text><circle cx="719.103" cy="505.9409" r="1.5" /><text font-size="8px" x="722.1030094600549" y="508.9408573694816">259</text><circle cx="732.0738" cy="517.1477" r="1.5" /><text font-size="8px" x="735.0737639115221" y="520.147718599322">260</text><circle cx="744.4447" cy="577.0611" r="1.5" /><text font-size="8px" x="747.444723059213" y="580.0610712357991">261</text><circle cx="593.7331" cy="869.4816" r="1.5" /><text font-size="8px" x="596.7331081605369" y="872.4816152951875">262</text><circle cx="728.4427" cy="543.2521" r="1.5" /><text font-size="8px" x="731.4427180880323" y="546.2521129121459">263</text><circle cx="819.4303" cy="580.919" r="1.5" /><text font-size="8px" x="822.4302965208465" y="583.9190011066512">264</text><circle cx="772.3234" cy="564.154" r="1.5" /><text font-size="8px" x="775.3234225314783" y="567.1540250353271">265</text><circle cx="655.5341" cy="661.7748" r="1.5" /><text font-size="8px" x="658.5341278926958" y="664.774770442001">266</text><circle cx="553.8277" cy="743.5606" r="1.5" /><text font-size="8px" x="556.8277244317665" y="746.5606179154133">267</text><circle cx="548.1995" cy="762.4879" r="1.5" /><text font-size="8px" x="551.1994780421219" y="765.4878957457225">268</text><circle cx="576.5793" cy="754.582" r="1.5" /><text font-size="8px" x="579.579322571441" y="757.5819952759762">269</text><circle cx="591.4536" cy="763.8964" r="1.5" /><text font-size="8px" x="594.4535832564417" y="766.896435658135">270</text><circle cx="567.4275" cy="766.253" r="1.5" /><text font-size="8px" x="570.4274695404673" y="769.2529929108049">271</text><circle cx="582.6643" cy="769.9614" r="1.5" /><text font-size="8px" x="585.6643071080348" y="772.9613738962089">272</text><circle cx="620.2002" cy="800.2534" r="1.5" /><text font-size="8px" x="623.2001917884918" y="803.2534162390875">273</text><circle cx="561.3601" cy="669.1564" r="1.5" /><text font-size="8px" x="564.3601078296803" y="672.1563805920232">274</text><circle cx="567.7551" cy="647.323" r="1.5" /><text font-size="8px" x="570.7551333823981" y="650.3229854297599">275</text><circle cx="764.6992" cy="505.3581" r="1.5" /><text font-size="8px" x="767.6992335910536" y="508.35811953820246">276</text><circle cx="620.6934" cy="595.9728" r="1.5" /><text font-size="8px" x="623.6933536467149" y="598.9728002198042">277</text><circle cx="611.2835" cy="668.957" r="1.5" /><text font-size="8px" x="614.2835046047247" y="671.9570003822981">278</text><circle cx="614.937" cy="656.5389" r="1.5" /><text font-size="8px" x="617.9370150180478" y="659.5388625209589">279</text><circle cx="723.8018" cy="670.0236" r="1.5" /><text font-size="8px" x="726.8017699366213" y="673.0236092977692">280</text><circle cx="571.534" cy="618.1482" r="1.5" /><text font-size="8px" x="574.5340159295228" y="621.1482079085339">281</text><circle cx="715.4925" cy="473.6277" r="1.5" /><text font-size="8px" x="718.4925274912309" y="476.6276530944127">282</text><circle cx="744.9353" cy="485.6123" r="1.5" /><text font-size="8px" x="747.9352725972151" y="488.61233243790605">283</text><circle cx="803.6237" cy="433.6746" r="1.5" /><text font-size="8px" x="806.6237139024304" y="436.67463659355883">284</text><circle cx="620.3141" cy="481.5525" r="1.5" /><text font-size="8px" x="623.3141213811974" y="484.55253233126405">285</text><circle cx="653.3707" cy="507.5421" r="1.5" /><text font-size="8px" x="656.3706718386295" y="510.5421110079692">286</text><circle cx="640.5337" cy="782.8544" r="1.5" /><text font-size="8px" x="643.5336907104548" y="785.8543552235662">287</text><circle cx="766.4532" cy="795.7723" r="1.5" /><text font-size="8px" x="769.4532157017723" y="798.7723331573147">288</text><circle cx="592.825" cy="679.0742" r="1.5" /><text font-size="8px" x="595.8250099301496" y="682.0742475495398">289</text><circle cx="575.1051" cy="682.8225" r="1.5" /><text font-size="8px" x="578.1050708834724" y="685.8225329575647">290</text><circle cx="610.8956" cy="776.9343" r="1.5" /><text font-size="8px" x="613.8956120482254" y="779.9342733052343">291</text><circle cx="606.2671" cy="776.1846" r="1.5" /><text font-size="8px" x="609.2670990625525" y="779.184616156315">292</text><circle cx="758.9616" cy="473.7318" r="1.5" /><text font-size="8px" x="761.9615783760352" y="476.7317618720607">293</text><circle cx="610.7971" cy="678.5812" r="1.5" /><text font-size="8px" x="613.7970856771012" y="681.581193146813">294</text><circle cx="675.3539" cy="470.4042" r="1.5" /><text font-size="8px" x="678.3539442923111" y="473.4042018043483">295</text><circle cx="680.6927" cy="453.3103" r="1.5" /><text font-size="8px" x="683.6927451066258" y="456.3103372111756">296</text><circle cx="720.5309" cy="367.2738" r="1.5" /><text font-size="8px" x="723.5308660874666" y="370.27375253292814">297</text><circle cx="783.1403" cy="455.2149" r="1.5" /><text font-size="8px" x="786.1403160587706" y="458.21488220128685">298</text><circle cx="700.1026" cy="409.4695" r="1.5" /><text font-size="8px" x="703.102564324178" y="412.4695123449436">299</text><circle cx="780.1552" cy="498.2363" r="1.5" /><text font-size="8px" x="783.1551524986169" y="501.23626873735975">300</text><circle cx="802.3348" cy="491.4394" r="1.5" /><text font-size="8px" x="805.3348246185259" y="494.4394324504261">301</text><circle cx="551.2518" cy="754.2553" r="1.5" /><text font-size="8px" x="554.2518095563684" y="757.2552873345364">302</text><circle cx="571.9427" cy="760.972" r="1.5" /><text font-size="8px" x="574.9427448547236" y="763.972001570535">303</text><circle cx="587.2046" cy="767.0454" r="1.5" /><text font-size="8px" x="590.2046357963545" y="770.0453881691661">304</text><circle cx="587.2855" cy="682.0873" r="1.5" /><text font-size="8px" x="590.285512161051" y="685.0872955576025">305</text><circle cx="608.5354" cy="776.5607" r="1.5" /><text font-size="8px" x="611.5353944318603" y="779.5606575341666">306</text><circle cx="598.0022" cy="779.563" r="1.5" /><text font-size="8px" x="601.0022273137332" y="782.5629519696934">307</text><circle cx="603.6617" cy="775.7991" r="1.5" /><text font-size="8px" x="606.661733019663" y="778.7990637224857">308</text><circle cx="584.1999" cy="670.9832" r="1.5" /><text font-size="8px" x="587.199898089746" y="673.9831927856776">309</text><circle cx="579.1888" cy="771.9242" r="1.5" /><text font-size="8px" x="582.1888076847303" y="774.9241946506796">310</text><circle cx="563.9238" cy="769.467" r="1.5" /><text font-size="8px" x="566.9237666482505" y="772.4670115571671">311</text><circle cx="545.8424" cy="767.1303" r="1.5" /><text font-size="8px" x="548.8424426369066" y="770.1303042632761">312</text><circle cx="545.6357" cy="825.2165" r="1.5" /><text font-size="8px" x="548.6357245299072" y="828.2164647720488">313</text><circle cx="545.8266" cy="799.2628" r="1.5" /><text font-size="8px" x="548.8266188032844" y="802.2628021777201">314</text><circle cx="546.5882" cy="787.2045" r="1.5" /><text font-size="8px" x="549.5881724065258" y="790.2044799308575">315</text><circle cx="546.7663" cy="776.1356" r="1.5" /><text font-size="8px" x="549.7663269542244" y="779.135640342358">316</text><circle cx="545.8938" cy="767.1298" r="1.5" /><text font-size="8px" x="548.8938201386126" y="770.1298183199493">317</text><circle cx="579.1987" cy="771.8735" r="1.5" /><text font-size="8px" x="582.19870158718" y="774.8734837834542">318</text><circle cx="582.8327" cy="776.5772" r="1.5" /><text font-size="8px" x="585.8326771179599" y="779.5772268870821">319</text><circle cx="586.0776" cy="782.6785" r="1.5" /><text font-size="8px" x="589.0776346640182" y="785.6784601578327">320</text><circle cx="588.331" cy="789.7435" r="1.5" /><text font-size="8px" x="591.3309962648816" y="792.7434705263842">321</text><circle cx="622.2361" cy="741.5376" r="1.5" /><text font-size="8px" x="625.236123001599" y="744.5375740067016">322</text><circle cx="807.8874" cy="683.5553" r="1.5" /><text font-size="8px" x="810.8874446443951" y="686.5552873414124">323</text><circle cx="590.5727" cy="773.7926" r="1.5" /><text font-size="8px" x="593.5726511268591" y="776.7925608701216">324</text><circle cx="594.3965" cy="776.4717" r="1.5" /><text font-size="8px" x="597.3965309506707" y="779.4717201862675">325</text><circle cx="567.0813" cy="690.4896" r="1.5" /><text font-size="8px" x="570.0812941964216" y="693.4895772337695">326</text><circle cx="601.1771" cy="690.4323" r="1.5" /><text font-size="8px" x="604.1770763070112" y="693.4323177855227">327</text><circle cx="570.9711" cy="686.7472" r="1.5" /><text font-size="8px" x="573.9710585152649" y="689.7471711223045">328</text><circle cx="641.3946" cy="613.0689" r="1.5" /><text font-size="8px" x="644.3946380825673" y="616.0689186722458">329</text><circle cx="675.3296" cy="634.626" r="1.5" /><text font-size="8px" x="678.3295947824572" y="637.6260406973942">330</text><circle cx="617.1762" cy="667.0732" r="1.5" /><text font-size="8px" x="620.1762388219151" y="670.0732226078527">331</text><circle cx="772.3324" cy="396.0898" r="1.5" /><text font-size="8px" x="775.3324109501283" y="399.0897868691552">332</text><circle cx="751.0374" cy="427.0879" r="1.5" /><text font-size="8px" x="754.0373507355021" y="430.08785881715175">333</text><circle cx="725.3027" cy="457.6441" r="1.5" /><text font-size="8px" x="728.3027072714908" y="460.6441058325893">334</text><circle cx="600.386" cy="811.4905" r="1.5" /><text font-size="8px" x="603.3859532202201" y="814.4905330148655">335</text><circle cx="629.8115" cy="452.8456" r="1.5" /><text font-size="8px" x="632.8115097027475" y="455.8455863541369">336</text><circle cx="647.3471" cy="400.3608" r="1.5" /><text font-size="8px" x="650.3470740980998" y="403.3607746281256">337</text><circle cx="663.9114" cy="349.0775" r="1.5" /><text font-size="8px" x="666.9113539943033" y="352.0775114486107">338</text><circle cx="717.1935" cy="566.6982" r="1.5" /><text font-size="8px" x="720.1934931319597" y="569.6981952722583">339</text><circle cx="764.6005" cy="596.7191" r="1.5" /><text font-size="8px" x="767.6005004213733" y="599.7191425987442">340</text><circle cx="634.843" cy="550.2279" r="1.5" /><text font-size="8px" x="637.8429524024316" y="553.2279052581366">341</text><circle cx="752.4603" cy="531.6906" r="1.5" /><text font-size="8px" x="755.4602982078889" y="534.6906211669125">342</text><circle cx="608.0654" cy="578.5637" r="1.5" /><text font-size="8px" x="611.065403842743" y="581.5637478718407">343</text><circle cx="599.7826" cy="659.2516" r="1.5" /><text font-size="8px" x="602.782564402412" y="662.251625911537">344</text><circle cx="791.7199" cy="621.8125" r="1.5" /><text font-size="8px" x="794.7199336798863" y="624.8125441544022">345</text><circle cx="746.3877" cy="611.5481" r="1.5" /><text font-size="8px" x="749.3876604527176" y="614.548137442747">346</text><circle cx="716.5164" cy="616.0549" r="1.5" /><text font-size="8px" x="719.5163928150821" y="619.054949682769">347</text><circle cx="676.812" cy="606.279" r="1.5" /><text font-size="8px" x="679.8119756540664" y="609.279021313876">348</text><circle cx="649.5866" cy="592.6905" r="1.5" /><text font-size="8px" x="652.5866168117606" y="595.6904923049997">349</text><circle cx="629.602" cy="579.2727" r="1.5" /><text font-size="8px" x="632.6020372001533" y="582.2727069593118">350</text><circle cx="584.8811" cy="544.6966" r="1.5" /><text font-size="8px" x="587.8811242900874" y="547.6965906512919">351</text><circle cx="780.5581" cy="670.6683" r="1.5" /><text font-size="8px" x="783.5580618667265" y="673.6682928208004">352</text><circle cx="770.7025" cy="532.4161" r="1.5" /><text font-size="8px" x="773.7024790425259" y="535.4160913534529">353</text><circle cx="552.6975" cy="678.7825" r="1.5" /><text font-size="8px" x="555.6975485914355" y="681.7824814594442">354</text><circle cx="614.7838" cy="619.0106" r="1.5" /><text font-size="8px" x="617.7838434796557" y="622.0105501869832">355</text><circle cx="826.9415" cy="578.9944" r="1.5" /><text font-size="8px" x="829.9414915914925" y="581.9943764287586">356</text><circle cx="614.5646" cy="565.1289" r="1.5" /><text font-size="8px" x="617.5646335527789" y="568.1289235181255">357</text><circle cx="619.0204" cy="668.3159" r="1.5" /><text font-size="8px" x="622.0203808896424" y="671.3159127194916">358</text><circle cx="738.268" cy="545.4266" r="1.5" /><text font-size="8px" x="741.2679566549494" y="548.4266063072374">359</text><circle cx="603.2442" cy="644.0855" r="1.5" /><text font-size="8px" x="606.2441864378105" y="647.0855001706004">360</text><circle cx="791.9986" cy="739.4765" r="1.5" /><text font-size="8px" x="794.9986028114806" y="742.4765364904422">361</text><circle cx="636.2529" cy="542.3956" r="1.5" /><text font-size="8px" x="639.2528597922184" y="545.3955740115242">362</text><circle cx="588.2943" cy="628.7584" r="1.5" /><text font-size="8px" x="591.2943365494854" y="631.758427372656">363</text><circle cx="703.1644" cy="839.6948" r="1.5" /><text font-size="8px" x="706.1644022402527" y="842.694773493067">364</text><circle cx="699.7013" cy="865.0364" r="1.5" /><text font-size="8px" x="702.7012539652053" y="868.0364110420975">365</text><circle cx="804.7531" cy="680.3981" r="1.5" /><text font-size="8px" x="807.7530959659257" y="683.3981300837801">366</text><circle cx="738.399" cy="815.3247" r="1.5" /><text font-size="8px" x="741.398992046617" y="818.324738556672">367</text><circle cx="812.1496" cy="532.4555" r="1.5" /><text font-size="8px" x="815.1495976692859" y="535.4555180845028">368</text><circle cx="595.7361" cy="892.185" r="1.5" /><text font-size="8px" x="598.7361111009802" y="895.1849574871603">369</text><circle cx="549.6508" cy="682.6067" r="1.5" /><text font-size="8px" x="552.6507797216971" y="685.6066877924651">370</text><circle cx="631.683" cy="639.087" r="1.5" /><text font-size="8px" x="634.6829962165643" y="642.0869560584963">371</text><circle cx="792.2098" cy="570.9532" r="1.5" /><text font-size="8px" x="795.209767422794" y="573.9531524619309">372</text><circle cx="699.1093" cy="555.7982" r="1.5" /><text font-size="8px" x="702.1093327124671" y="558.7982128473662">373</text><circle cx="681.8283" cy="555.9574" r="1.5" /><text font-size="8px" x="684.8282531679923" y="558.9574017896667">374</text><circle cx="601.0857" cy="783.2556" r="1.5" /><text font-size="8px" x="604.0857328294144" y="786.2555601038589">375</text><circle cx="769.4766" cy="717.0928" r="1.5" /><text font-size="8px" x="772.4766015632281" y="720.0928481537691">376</text><circle cx="550.653" cy="913.7386" r="1.5" /><text font-size="8px" x="553.653031442436" y="916.7386343661865">377</text><circle cx="623.621" cy="898.9737" r="1.5" /><text font-size="8px" x="626.6210278434351" y="901.9736680274586">378</text><circle cx="658.2319" cy="886.0943" r="1.5" /><text font-size="8px" x="661.231870558705" y="889.0943071072677">379</text><circle cx="665.855" cy="553.0178" r="1.5" /><text font-size="8px" x="668.8549886632997" y="556.0178186596879">380</text><circle cx="651.4526" cy="548.2197" r="1.5" /><text font-size="8px" x="654.4525551618844" y="551.2197180004829">381</text><circle cx="641.6281" cy="545.2216" r="1.5" /><text font-size="8px" x="644.6280552858715" y="548.221635880928">382</text><circle cx="788.6164" cy="530.566" r="1.5" /><text font-size="8px" x="791.6164383356847" y="533.5660021815004">383</text><circle cx="654.5995" cy="524.5171" r="1.5" /><text font-size="8px" x="657.5994635064749" y="527.5171457924869">384</text><circle cx="672.2019" cy="518.3519" r="1.5" /><text font-size="8px" x="675.20192653638" y="521.3519148025554">385</text><circle cx="690.2057" cy="519.1641" r="1.5" /><text font-size="8px" x="693.2057136320728" y="522.1640538555583">386</text><circle cx="707.6682" cy="525.0847" r="1.5" /><text font-size="8px" x="710.6681930764469" y="528.0847116709806">387</text><circle cx="717.8649" cy="532.3478" r="1.5" /><text font-size="8px" x="720.8648514796852" y="535.3478339352741">388</text><circle cx="828.1197" cy="523.503" r="1.5" /><text font-size="8px" x="831.1197275052863" y="526.5029584874637">389</text><circle cx="711.1529" cy="553.0058" r="1.5" /><text font-size="8px" x="714.1529488371609" y="556.0058104288446">390</text><circle cx="603.5631" cy="725.2857" r="1.5" /><text font-size="8px" x="606.5630504797757" y="728.2857321675527">391</text><circle cx="593.2733" cy="675.6482" r="1.5" /><text font-size="8px" x="596.2732968263206" y="678.6481884187069">392</text><circle cx="565.0962" cy="711.7317" r="1.5" /><text font-size="8px" x="568.096156219713" y="714.7316526672623">393</text><circle cx="665.8627" cy="861.9734" r="1.5" /><text font-size="8px" x="668.8626719085966" y="864.9733581042399">394</text><circle cx="631.8493" cy="877.7066" r="1.5" /><text font-size="8px" x="634.849272470436" y="880.7066010471906">395</text><circle cx="553.8242" cy="899.6166" r="1.5" /><text font-size="8px" x="556.8242031347735" y="902.6165895965614">396</text><circle cx="734.2948" cy="837.4581" r="1.5" /><text font-size="8px" x="737.2948299185061" y="840.4580646024123">397</text><circle cx="642.0756" cy="535.2631" r="1.5" /><text font-size="8px" x="645.0756144074714" y="538.2631235389267">398</text><circle cx="592.5227" cy="583.7881" r="1.5" /><text font-size="8px" x="595.5227490737564" y="586.7880845835384">399</text><circle cx="588.824" cy="909.0968" r="1.5" /><text font-size="8px" x="591.8239637469873" y="912.096759866117">400</text><circle cx="789.8603" cy="731.3159" r="1.5" /><text font-size="8px" x="792.860267578446" y="734.3158711645688">401</text><circle cx="564.0213" cy="769.4518" r="1.5" /><text font-size="8px" x="567.0212623490668" y="772.4518039179956">402</text><circle cx="567.0155" cy="776.7796" r="1.5" /><text font-size="8px" x="570.0155343518805" y="779.7796325871404">403</text><circle cx="568.6995" cy="785.7089" r="1.5" /><text font-size="8px" x="571.6994837887993" y="788.7089179281264">404</text><circle cx="569.3461" cy="796.5634" r="1.5" /><text font-size="8px" x="572.3461149425943" y="799.5634383216768">405</text><circle cx="575.6935" cy="820.5965" r="1.5" /><text font-size="8px" x="578.6934628097312" y="823.5965282929473">406</text><circle cx="595.005" cy="773.01" r="1.5" /><text font-size="8px" x="598.0049909319471" y="776.0099699383107">407</text><circle cx="599.0647" cy="772.1057" r="1.5" /><text font-size="8px" x="602.0646883422231" y="775.1056906617746">408</text><circle cx="602.6073" cy="770.9161" r="1.5" /><text font-size="8px" x="605.6073063218417" y="773.9160723375562">409</text><circle cx="635.6469" cy="761.4593" r="1.5" /><text font-size="8px" x="638.6469186033931" y="764.459294105044">410</text><circle cx="735.2039" cy="723.5654" r="1.5" /><text font-size="8px" x="738.203869048392" y="726.5653717434402">411</text><circle cx="596.2669" cy="559.8732" r="1.5" /><text font-size="8px" x="599.2668896472752" y="562.8732258572416">412</text><circle cx="620.5037" cy="520.9936" r="1.5" /><text font-size="8px" x="623.503651008027" y="523.9936219619696">413</text><circle cx="634.6257" cy="525.9321" r="1.5" /><text font-size="8px" x="637.6256989606497" y="528.9321374255818">414</text><circle cx="590.7564" cy="773.8129" r="1.5" /><text font-size="8px" x="593.7563639563174" y="776.8128595060193">415</text><circle cx="730.1958" cy="779.5529" r="1.5" /><text font-size="8px" x="733.1958495545512" y="782.552862671203">416</text><circle cx="598.3852" cy="516.802" r="1.5" /><text font-size="8px" x="601.3851687058126" y="519.802046384766">417</text><circle cx="585.7904" cy="844.9513" r="1.5" /><text font-size="8px" x="588.7903643526968" y="847.9513023647753">418</text><circle cx="579.8178" cy="569.9602" r="1.5" /><text font-size="8px" x="582.8178444023266" y="572.9601869026803">419</text><circle cx="600.7486" cy="622.6886" r="1.5" /><text font-size="8px" x="603.7485980816471" y="625.6885875136188">420</text><circle cx="549.7123" cy="850.1391" r="1.5" /><text font-size="8px" x="552.7122518851384" y="853.1391227008879">421</text><circle cx="642.1366" cy="814.2087" r="1.5" /><text font-size="8px" x="645.1366285014896" y="817.2086808266271">422</text><circle cx="634.1453" cy="689.5251" r="1.5" /><text font-size="8px" x="637.1453011596476" y="692.5251377568667">423</text><circle cx="615.4667" cy="833.0306" r="1.5" /><text font-size="8px" x="618.4666676002042" y="836.0306108038936">424</text><circle cx="686.8583" cy="694.6962" r="1.5" /><text font-size="8px" x="689.858282326123" y="697.6962334497948">425</text><circle cx="651.0083" cy="715.9274" r="1.5" /><text font-size="8px" x="654.0082660576408" y="718.9273520175692">426</text><circle cx="700.2267" cy="734.8857" r="1.5" /><text font-size="8px" x="703.2266784896349" y="737.8856819347794">427</text><circle cx="553.4491" cy="877.795" r="1.5" /><text font-size="8px" x="556.4490971470087" y="880.7950362448186">428</text><circle cx="611.3148" cy="637.2484" r="1.5" /><text font-size="8px" x="614.3148347715638" y="640.2483596925089">429</text><circle cx="660.3747" cy="834.7278" r="1.5" /><text font-size="8px" x="663.3747386035236" y="837.7277770492152">430</text><circle cx="627.1981" cy="853.6266" r="1.5" /><text font-size="8px" x="630.1980936826678" y="856.6265782796901">431</text><circle cx="664.6022" cy="790.2656" r="1.5" /><text font-size="8px" x="667.6022002013494" y="793.265621528768">432</text><circle cx="757.5211" cy="755.7708" r="1.5" /><text font-size="8px" x="760.5211373787806" y="758.7707935545501">433</text><circle cx="694.9576" cy="798.6932" r="1.5" /><text font-size="8px" x="697.9575887123282" y="801.6932251014955">434</text><circle cx="770.2016" cy="776.9331" r="1.5" /><text font-size="8px" x="773.2015909410823" y="779.933130085126">435</text><circle cx="663.7374" cy="748.4416" r="1.5" /><text font-size="8px" x="666.7373530636081" y="751.4415508650135">436</text><circle cx="603.1485" cy="600.9073" r="1.5" /><text font-size="8px" x="606.1485361270293" y="603.907340922267">437</text><circle cx="591.3268" cy="668.3815" r="1.5" /><text font-size="8px" x="594.3268407036603" y="671.3814802289696">438</text><circle cx="603.0846" cy="675.4899" r="1.5" /><text font-size="8px" x="606.0846223102942" y="678.4899109253969">439</text><circle cx="585.1345" cy="652.5843" r="1.5" /><text font-size="8px" x="588.1345086863333" y="655.5842961219366">440</text><circle cx="638.6568" cy="500.6831" r="1.5" /><text font-size="8px" x="641.6568021211169" y="503.6830781117568">441</text><circle cx="673.6471" cy="489.0375" r="1.5" /><text font-size="8px" x="676.6471011574652" y="492.0375061863791">442</text><circle cx="704.0508" cy="489.8853" r="1.5" /><text font-size="8px" x="707.050849192866" y="492.8852955061326">443</text><circle cx="728.8071" cy="498.1324" r="1.5" /><text font-size="8px" x="731.8071122641588" y="501.1324011662516">444</text><circle cx="745.3093" cy="511.9121" r="1.5" /><text font-size="8px" x="748.3093214205885" y="514.9121092708797">445</text><circle cx="752.6824" cy="554.2276" r="1.5" /><text font-size="8px" x="755.6824484159588" y="557.2275699359709">446</text><circle cx="815.4017" cy="630.5234" r="1.5" /><text font-size="8px" x="818.4017394566343" y="633.5234348947331">447</text><circle cx="730.9572" cy="585.3296" r="1.5" /><text font-size="8px" x="733.9571984275517" y="588.3296175169032">448</text><circle cx="707.8495" cy="589.424" r="1.5" /><text font-size="8px" x="710.8495353478679" y="592.4240442599563">449</text><circle cx="679.9423" cy="585.6815" r="1.5" /><text font-size="8px" x="682.9422612894211" y="588.6814642814127">450</text><circle cx="655.1551" cy="577.0762" r="1.5" /><text font-size="8px" x="658.1551271934089" y="580.0761972009768">451</text><circle cx="636.8009" cy="567.3411" r="1.5" /><text font-size="8px" x="639.8008861691778" y="570.3411418907006">452</text><circle cx="623.8828" cy="558.1467" r="1.5" /><text font-size="8px" x="626.8827657461624" y="561.1467308939242">453</text><circle cx="818.4596" cy="630.7905" r="1.5" /><text font-size="8px" x="821.4596108204828" y="633.7905078462192">454</text><circle cx="601.8768" cy="680.9584" r="1.5" /><text font-size="8px" x="604.876772804754" y="683.958351074953">455</text><circle cx="588.9088" cy="605.4876" r="1.5" /><text font-size="8px" x="591.9088223628943" y="608.4876481772232">456</text><circle cx="576.7151" cy="667.9376" r="1.5" /><text font-size="8px" x="579.7151330718344" y="670.9375789206889">457</text><circle cx="564.0354" cy="676.6053" r="1.5" /><text font-size="8px" x="567.0354120475848" y="679.605284750461">458</text><circle cx="576.0088" cy="671.2169" r="1.5" /><text font-size="8px" x="579.008784024631" y="674.2169348776429">459</text><circle cx="595.0813" cy="686.3641" r="1.5" /><text font-size="8px" x="598.0812827359168" y="689.3641262062287">460</text><circle cx="559.6293" cy="678.2174" r="1.5" /><text font-size="8px" x="562.6292710400205" y="681.2173961536345">461</text><circle cx="556.5811" cy="682.1472" r="1.5" /><text font-size="8px" x="559.5810802494142" y="685.1472160544668">462</text><circle cx="628.3554" cy="541.9216" r="1.5" /><text font-size="8px" x="631.3553969003508" y="544.921575289447">463</text><circle cx="614.3729" cy="544.2535" r="1.5" /><text font-size="8px" x="617.3729234027004" y="547.2535141772892">464</text><circle cx="604.3268" cy="546.1115" r="1.5" /><text font-size="8px" x="607.3267801824469" y="549.1115125220382">465</text><circle cx="723.6519" cy="538.0212" r="1.5" /><text font-size="8px" x="726.6518924849706" y="541.0212443606329">466</text><circle cx="739.9517" cy="530.0737" r="1.5" /><text font-size="8px" x="742.9516557072737" y="533.0737180516627">467</text><circle cx="462.048" cy="503.5548" r="1.5" /><text font-size="8px" x="465.04801502123894" y="506.554756816303">468</text><circle cx="483.6835" cy="507.143" r="1.5" /><text font-size="8px" x="486.68348210965394" y="510.14303366885724">469</text><circle cx="465.1406" cy="483.8578" r="1.5" /><text font-size="8px" x="468.1405626404186" y="486.8578497660958">470</text><circle cx="439.7735" cy="499.7613" r="1.5" /><text font-size="8px" x="442.77349945792844" y="502.76128056751725">471</text><circle cx="458.6139" cy="523.4991" r="1.5" /><text font-size="8px" x="461.6138594064905" y="526.4991025177601">472</text><circle cx="677.8205" cy="535.7307" r="1.5" /><text font-size="8px" x="680.8204615445559" y="538.7307333669731">473</text><circle cx="700.7959" cy="538.3755" r="1.5" /><text font-size="8px" x="703.7959483070647" y="541.3754551841356">474</text><circle cx="680.1415" cy="515.1655" r="1.5" /><text font-size="8px" x="683.1415092286394" y="518.1655189260067">475</text><circle cx="655.2979" cy="532.9028" r="1.5" /><text font-size="8px" x="658.2979120953406" y="535.902809104759">476</text><circle cx="675.6444" cy="556.441" r="1.5" /><text font-size="8px" x="678.6444420352817" y="559.44098634943">477</text></g></svg>